<?xml version="1.0" encoding="UTF-8"?>
<!DOCTYPE svg PUBLIC "-//W3C//DTD SVG 1.1//EN" "http://www.w3.org/Graphics/SVG/1.1/DTD/svg11.dtd">
<!-- Creator: CorelDRAW X7 -->
<svg xmlns="http://www.w3.org/2000/svg" xml:space="preserve" width="50.8mm" height="50.8mm" version="1.1" style="shape-rendering:geometricPrecision; text-rendering:geometricPrecision; image-rendering:optimizeQuality; fill-rule:evenodd; clip-rule:evenodd"
viewBox="0 0 5080000 5080000"
 xmlns:xlink="http://www.w3.org/1999/xlink">
 <defs>
  <style type="text/css">
   <![CDATA[
    .str0 {stroke:white;stroke-width:610570;stroke-linecap:square}
    .fil1 {fill:none}
    .fil0 {fill:#29A71A}
    .fil2 {fill:white;fill-rule:nonzero}
   ]]>
  </style>
 </defs>
 <g id="Layer_x0020_1">
  <metadata id="CorelCorpID_0Corel-Layer"/>
  <g id="_1550327870384">
   <rect class="fil0" x="-14" y="10" width="5079997" height="5079997" rx="340049" ry="340049"/>
   <g>
    <g>
     <path class="fil1 str0" d="M2539990 1095000c798050,0 1445010,646950 1445010,1445010 0,298290 -90400,575480 -245290,805640l153620 573180 -582930 -156200c-223010,140820 -487170,222390 -770410,222390 -798060,0 -1445010,-646950 -1445010,-1445010 0,-798060 646950,-1445010 1445010,-1445010z"/>
     <path id="1" class="fil0" d="M2539990 1095000c798050,0 1445010,646950 1445010,1445010 0,298290 -90400,575480 -245290,805640l153620 573180 -582930 -156200c-223010,140820 -487170,222390 -770410,222390 -798060,0 -1445010,-646950 -1445010,-1445010 0,-798060 646950,-1445010 1445010,-1445010z"/>
    </g>
    <path class="fil2" d="M1518220 3519960l665710 -1959860 675180 0c152380,0 265610,9120 339550,27820 103400,26010 183240,73000 239680,140520 73810,87590 113100,198900 118010,334850 5380,135950 -21920,291520 -81270,466250 -50520,148720 -112630,280560 -186350,395530 -73730,114960 -150820,210310 -230680,285580 -80320,75280 -159760,134580 -239120,177470 -79040,43340 -168210,76180 -267040,98540 -99290,22350 -207940,33300 -326550,33300l-707120 0zm338140 -229930l417880 0c129110,0 234410,-11860 316070,-36040 81660,-24180 151530,-57940 210200,-101730 82060,-61590 158160,-144620 227700,-248640 69550,-104010 129650,-229920 180010,-378190 69740,-205290 89590,-363140 60030,-473540 -29550,-110410 -86110,-184310 -169660,-221720 -60200,-26920 -167480,-40150 -321680,-40150l-411040 0 -509510 1500010z"/>
    <g>
     <path id="1" class="fil2" d="M2273950 1560100l-665710 1959860 -180040 0 665710 -1959860 120600 -90020 59440 90020zm-180040 0l30580 -90020 90020 0 -120600 90020zm734620 90020l-675180 0 61160 -180040 675180 0 0 0 -61160 180040zm420240 -149890l-100220 175380 -90 -20 -5980 -1470 -6280 -1430 -6540 -1420 -6830 -1360 -7090 -1350 -7300 -1280 -7660 -1260 -7830 -1210 -8140 -1170 -8440 -1130 -8600 -1080 -8910 -1030 -9160 -990 -9420 -940 -9660 -900 -9920 -840 -10170 -790 -10410 -740 -10700 -700 -10910 -650 -11110 -590 -11440 -540 -11640 -500 -11900 -440 -12160 -390 -12350 -340 -12610 -280 -12890 -240 -13110 -180 -13340 -130 -13610 -80 -13820 -20 61160 -180040 14520 40 14270 80 14080 130 13870 200 13610 240 13430 300 13250 360 12960 430 12780 460 12560 540 12320 580 12170 650 11930 710 11680 760 11490 820 11290 890 11080 940 10860 1000 10660 1060 10460 1130 10250 1190 10080 1260 9800 1330 9640 1370 9490 1470 9200 1520 9080 1600 8850 1670 8650 1740 8480 1820 8260 1890 8120 1990 -90 -20zm271040 159480l-162940 137460 -140 -170 -4580 -5350 -4710 -5260 -4820 -5170 -4900 -5020 -5050 -4930 -5200 -4880 -5280 -4740 -5400 -4630 -5540 -4560 -5620 -4420 -5800 -4350 -5930 -4270 -5970 -4110 -6150 -4040 -6320 -3970 -6370 -3830 -6530 -3740 -6660 -3650 -6800 -3540 -6950 -3470 -7020 -3340 -7200 -3240 -7340 -3160 -7400 -3030 -7600 -2940 -7750 -2850 -7860 -2730 -8020 -2650 -8160 -2540 -8260 -2430 -8420 -2320 -8570 -2230 100220 -175380 10670 2770 10560 2920 10440 3070 10260 3200 10120 3330 10020 3490 9850 3630 9720 3760 9640 3930 9420 4060 9300 4200 9180 4360 8990 4470 8880 4640 8720 4770 8590 4920 8470 5090 8240 5190 8150 5340 8030 5530 7810 5630 7680 5770 7560 5940 7380 6060 7240 6210 7080 6360 6900 6460 6770 6630 6640 6800 6440 6890 6290 7040 6140 7190 -140 -170zm131550 371660l-190020 63840 -10 -260 -500 -11470 -690 -11310 -880 -11180 -1040 -11030 -1230 -10850 -1410 -10730 -1590 -10590 -1760 -10440 -1930 -10270 -2120 -10130 -2300 -10020 -2480 -9880 -2640 -9730 -2830 -9600 -2990 -9440 -3170 -9310 -3360 -9210 -3510 -9030 -3710 -8920 -3890 -8830 -4040 -8640 -4230 -8530 -4410 -8420 -4570 -8270 -4780 -8160 -4950 -8060 -5120 -7920 -5310 -7800 -5470 -7670 -5680 -7570 -5850 -7450 -6020 -7320 162940 -137460 7620 9240 7370 9390 7160 9550 6950 9730 6710 9880 6500 10040 6250 10180 6040 10340 5830 10530 5590 10660 5370 10830 5140 11000 4890 11110 4690 11280 4450 11450 4220 11570 4010 11750 3770 11900 3530 12020 3320 12170 3080 12320 2860 12460 2640 12630 2410 12770 2180 12900 1950 13030 1730 13170 1510 13350 1280 13450 1060 13600 830 13750 620 13870 -10 -260zm-86270 498170l-180020 0 -10 0 5190 -15480 5010 -15390 4840 -15250 4630 -15110 4460 -15010 4270 -14870 4090 -14740 3910 -14650 3740 -14500 3530 -14360 3370 -14250 3170 -14120 3010 -14020 2820 -13880 2640 -13750 2460 -13640 2280 -13490 2100 -13380 1920 -13260 1740 -13130 1560 -13010 1390 -12890 1210 -12760 1030 -12650 850 -12490 670 -12400 510 -12310 330 -12130 140 -12040 -10 -11920 -200 -11770 -380 -11680 190020 -63840 440 13920 240 14070 30 14140 -180 14260 -390 14390 -590 14450 -790 14580 -1010 14710 -1210 14790 -1410 14920 -1610 14990 -1820 15130 -2020 15210 -2220 15320 -2420 15440 -2620 15530 -2820 15620 -3020 15750 -3220 15840 -3410 15920 -3610 16040 -3810 16150 -4010 16260 -4200 16340 -4390 16430 -4590 16560 -4790 16650 -4980 16750 -5170 16850 -5360 16950 -5550 17050 -5750 17160 -10 0zm-199010 421530l-154700 -52000 -10 10 6290 -9890 6210 -9950 6150 -10070 6120 -10200 6050 -10290 6000 -10400 5970 -10530 5910 -10640 5850 -10720 5790 -10840 5750 -10960 5680 -11040 5620 -11150 5590 -11300 5540 -11410 5450 -11440 5410 -11620 5380 -11740 5270 -11760 5240 -11940 5200 -12070 5130 -12140 5080 -12270 5010 -12330 4940 -12470 4920 -12620 4830 -12670 4780 -12810 4730 -12900 4650 -13000 4610 -13140 4550 -13230 180020 0 -4990 14550 -5070 14460 -5150 14380 -5230 14300 -5300 14190 -5390 14110 -5440 13980 -5540 13950 -5630 13870 -5680 13730 -5770 13660 -5840 13550 -5920 13480 -6030 13440 -6080 13280 -6150 13200 -6270 13180 -6320 13010 -6390 12940 -6500 12870 -6580 12800 -6650 12660 -6730 12600 -6830 12520 -6890 12400 -6970 12310 -7060 12240 -7170 12170 -7220 12040 -7330 11990 -7410 11890 -7470 11770 -10 10zm-253220 312520l-109620 -105880 -310 280 6470 -6150 6500 -6310 6480 -6390 6490 -6520 6520 -6680 6470 -6730 6500 -6890 6550 -7060 6510 -7140 6520 -7270 6490 -7360 6550 -7560 6590 -7710 6510 -7730 6500 -7870 6550 -8050 6560 -8170 6540 -8280 6510 -8370 6520 -8530 6550 -8680 6530 -8770 6530 -8910 6510 -9020 6530 -9170 6530 -9300 6480 -9370 6510 -9560 6530 -9690 6450 -9710 6480 -9910 6490 -10060 154700 52000 -7350 11380 -7400 11310 -7470 11270 -7450 11050 -7470 10960 -7560 10910 -7550 10760 -7590 10670 -7630 10560 -7670 10470 -7690 10350 -7710 10220 -7780 10150 -7830 10070 -7840 9920 -7840 9790 -7890 9690 -7980 9650 -8010 9530 -7970 9330 -8030 9260 -8130 9220 -8140 9070 -8170 8960 -8190 8820 -8240 8750 -8330 8670 -8300 8480 -8370 8420 -8420 8310 -8420 8150 -8490 8090 -310 280zm-268990 199180l-49880 -149300 750 -410 6230 -3410 6170 -3450 6290 -3610 6340 -3700 6180 -3690 6270 -3840 6350 -3970 6400 -4060 6350 -4120 6310 -4180 6420 -4330 6400 -4400 6420 -4490 6520 -4640 6460 -4690 6480 -4770 6540 -4900 6560 -5000 6570 -5090 6550 -5150 6580 -5250 6680 -5420 6650 -5470 6630 -5540 6740 -5720 6720 -5770 6680 -5830 6750 -5970 6810 -6100 6790 -6160 6810 -6260 6850 -6370 109620 105880 -8210 7650 -8230 7580 -8250 7480 -8210 7360 -8270 7310 -8320 7250 -8280 7110 -8260 7000 -8350 6980 -8330 6850 -8280 6720 -8380 6710 -8410 6610 -8370 6470 -8380 6380 -8400 6300 -8440 6230 -8480 6130 -8400 5980 -8480 5950 -8520 5840 -8480 5730 -8590 5680 -8550 5540 -8500 5420 -8550 5330 -8610 5260 -8700 5210 -8560 5000 -8590 4930 -8710 4870 -8650 4730 750 -410zm-300370 111340l16780 -174900 -120 20 8370 -1930 8330 -1980 8270 -2040 8210 -2100 8120 -2130 8000 -2170 7930 -2230 7960 -2310 7880 -2340 7710 -2370 7640 -2410 7650 -2500 7580 -2540 7490 -2580 7420 -2620 7310 -2660 7280 -2720 7160 -2750 7150 -2820 7060 -2860 7030 -2920 6930 -2940 6800 -2970 6720 -3010 6720 -3090 6740 -3160 6560 -3160 6420 -3170 6440 -3250 6420 -3320 6320 -3350 6210 -3360 49880 149300 -8670 4700 -8680 4590 -8700 4500 -8780 4450 -8940 4410 -8920 4280 -8840 4160 -8980 4130 -9100 4070 -9140 3990 -9130 3880 -9150 3800 -9220 3720 -9270 3660 -9360 3590 -9360 3500 -9450 3440 -9440 3340 -9510 3280 -9520 3180 -9570 3120 -9680 3070 -9750 2990 -9680 2880 -9700 2810 -9870 2770 -9900 2690 -9900 2610 -9930 2520 -9970 2460 -10030 2400 -10110 2330 -120 20zm-348740 35870l61160 -180040 0 0 10560 -20 10490 -100 10470 -150 10350 -210 10250 -270 10230 -340 10200 -400 10090 -460 10030 -520 9950 -570 9890 -640 9820 -690 9700 -760 9740 -830 9620 -870 9500 -940 9530 -1000 9380 -1050 9340 -1120 9330 -1180 9160 -1220 9110 -1290 9070 -1360 9060 -1410 8890 -1460 8830 -1520 8860 -1600 8740 -1630 8610 -1690 8540 -1750 8550 -1820 8470 -1860 -16780 174900 -10210 2260 -10230 2180 -10340 2110 -10390 2030 -10380 1950 -10360 1860 -10510 1820 -10550 1720 -10500 1650 -10590 1580 -10690 1510 -10720 1440 -10670 1340 -10780 1300 -10860 1210 -10810 1140 -10960 1080 -10940 990 -10960 930 -11080 860 -11100 790 -11130 720 -11190 650 -11230 580 -11290 500 -11280 440 -11370 380 -11470 310 -11470 230 -11490 170 -11570 100 -11620 40 0 0zm-645960 -180040l707120 0 -61160 180040 -707120 0 -59440 -90020 120600 -90020zm-61160 180040l-90020 0 30580 -90020 59440 90020zm756020 -229930l-417880 0 61160 -180040 417880 0 0 0 -61160 180040zm347540 -211560l-1780 171000 0 0 -9260 2680 -9330 2560 -9460 2470 -9560 2360 -9580 2240 -9670 2150 -9760 2050 -9870 1970 -10010 1880 -10070 1770 -10150 1690 -10310 1610 -10370 1510 -10460 1430 -10570 1350 -10750 1270 -10790 1170 -10840 1100 -11070 1020 -11140 940 -11240 860 -11350 780 -11480 720 -11640 630 -11670 550 -11830 480 -11980 400 -12040 330 -12190 260 -12310 180 -12450 110 -12560 40 61160 -180040 11500 -20 11350 -110 11190 -160 11050 -240 10920 -290 10680 -360 10570 -440 10450 -490 10200 -550 10080 -620 9930 -680 9760 -760 9600 -800 9370 -880 9320 -940 9110 -990 8870 -1050 8750 -1110 8600 -1170 8410 -1230 8190 -1270 8070 -1350 7890 -1390 7650 -1440 7530 -1490 7340 -1550 7170 -1590 6980 -1640 6720 -1660 6540 -1710 6410 -1760 6180 -1780 0 0zm166970 -79650l84680 126840 -320 230 -7040 5200 -7160 5130 -7110 4970 -7200 4890 -7270 4830 -7430 4790 -7380 4630 -7410 4540 -7590 4520 -7650 4430 -7590 4280 -7710 4240 -7820 4160 -7750 4020 -7800 3930 -7890 3880 -7990 3810 -8030 3730 -8150 3670 -8070 3520 -8100 3450 -8270 3400 -8230 3300 -8300 3220 -8310 3130 -8430 3090 -8500 3000 -8420 2890 -8600 2870 -8580 2750 -8610 2690 -8720 2620 1780 -171000 6520 -1960 6490 -2030 6400 -2050 6220 -2070 6280 -2150 6040 -2140 5990 -2190 5970 -2250 5860 -2280 5770 -2300 5610 -2320 5620 -2390 5550 -2420 5310 -2390 5290 -2450 5210 -2490 5170 -2540 5120 -2590 5050 -2620 4840 -2580 4810 -2640 4810 -2700 4610 -2670 4530 -2700 4570 -2800 4480 -2810 4310 -2790 4310 -2850 4260 -2910 4230 -2950 4040 -2890 4020 -2960 -320 230zm194090 -213350l151900 56260 10 -10 -7200 10660 -7240 10530 -7290 10410 -7390 10360 -7430 10200 -7440 10050 -7610 10070 -7610 9850 -7640 9730 -7750 9670 -7820 9570 -7870 9420 -7900 9270 -7990 9190 -8070 9110 -8160 8990 -8190 8840 -8250 8730 -8320 8600 -8380 8490 -8440 8360 -8520 8250 -8620 8160 -8650 8000 -8670 7840 -8820 7790 -8880 7650 -8910 7490 -8940 7330 -9020 7240 -9140 7120 -9160 6970 -84680 -126840 6200 -4710 6140 -4800 6180 -4940 6200 -5090 6170 -5190 6120 -5270 6100 -5390 6190 -5600 6130 -5660 6100 -5780 6120 -5930 6120 -6060 6120 -6190 6100 -6320 6110 -6450 6090 -6580 6040 -6670 6050 -6810 6070 -6990 6080 -7150 6050 -7240 6000 -7330 6010 -7490 6040 -7690 6010 -7790 5930 -7850 6000 -8090 5970 -8200 5910 -8280 5930 -8470 5920 -8610 5880 -8720 10 -10zm165950 -350060l180020 0 10 0 -4990 14500 -5040 14370 -5100 14260 -5180 14140 -5240 14020 -5310 13910 -5390 13810 -5460 13690 -5510 13550 -5570 13390 -5660 13370 -5740 13220 -5790 13070 -5860 12970 -5930 12850 -6000 12740 -6090 12660 -6160 12510 -6210 12380 -6320 12320 -6360 12150 -6460 12100 -6520 11920 -6590 11830 -6700 11760 -6720 11550 -6830 11490 -6930 11420 -6990 11270 -7070 11160 -7130 11010 -7230 10930 -151900 -56260 5750 -8710 5750 -8870 5690 -8980 5670 -9130 5610 -9240 5590 -9430 5600 -9630 5520 -9660 5490 -9870 5480 -10020 5400 -10100 5400 -10310 5340 -10420 5310 -10600 5280 -10730 5210 -10840 5200 -11020 5150 -11170 5120 -11310 5070 -11470 5020 -11560 4960 -11690 4950 -11930 4910 -12030 4840 -12150 4790 -12290 4750 -12450 4720 -12620 4660 -12740 4620 -12880 4580 -13050 4510 -13160 10 0zm57230 -426810l185620 -93460 0 0 3120 12470 2760 12720 2400 12940 2060 13230 1710 13520 1350 13710 1020 13950 690 14220 350 14480 10 14700 -300 14940 -640 15170 -950 15380 -1260 15690 -1600 15920 -1900 16130 -2210 16330 -2510 16610 -2830 16880 -3140 17110 -3440 17330 -3740 17570 -4040 17810 -4330 18060 -4650 18330 -4930 18550 -5240 18800 -5530 19040 -5820 19290 -6120 19560 -6410 19780 -6710 20050 -180020 0 6070 -18170 5790 -17880 5500 -17540 5200 -17250 4930 -16960 4620 -16620 4350 -16330 4050 -15990 3770 -15720 3500 -15390 3200 -15090 2940 -14770 2640 -14430 2370 -14100 2090 -13830 1830 -13530 1560 -13190 1280 -12840 1020 -12530 750 -12260 500 -11930 240 -11600 -10 -11280 -270 -10940 -510 -10660 -760 -10370 -990 -10030 -1230 -9700 -1460 -9410 -1700 -9140 -1900 -8820 -2140 -8510 0 0zm-137930 -184540l122160 -167820 30 10 9450 4400 9280 4680 9090 4940 8890 5200 8660 5430 8480 5700 8250 5950 8030 6170 7860 6450 7670 6710 7400 6900 7220 7150 7020 7420 6780 7610 6580 7840 6390 8100 6160 8300 5950 8520 5750 8750 5540 8950 5340 9190 5120 9370 4940 9600 4720 9800 4530 9990 4340 10240 4140 10440 3930 10590 3750 10840 3560 11040 3360 11200 3180 11420 -185620 93460 -2520 -9060 -2660 -8860 -2760 -8600 -2910 -8360 -3030 -8190 -3140 -7920 -3260 -7680 -3390 -7490 -3500 -7260 -3620 -7040 -3740 -6850 -3840 -6590 -3960 -6410 -4050 -6170 -4190 -5980 -4280 -5780 -4370 -5540 -4500 -5360 -4620 -5190 -4680 -4940 -4820 -4770 -4940 -4620 -4990 -4370 -5120 -4190 -5270 -4050 -5350 -3850 -5440 -3660 -5580 -3510 -5670 -3320 -5790 -3140 -5920 -2980 -6050 -2820 30 10zm-291180 -34040l61160 -180040 0 0 14820 50 14530 120 14280 200 14060 280 13790 360 13510 450 13290 530 13030 620 12750 690 12530 790 12290 870 12000 950 11790 1040 11540 1140 11270 1220 11050 1310 10820 1410 10590 1500 10340 1600 10060 1700 9890 1790 9640 1910 9410 2000 9210 2130 8980 2240 8740 2370 8520 2470 8320 2620 8070 2740 7920 2900 7680 3060 7460 3200 -122160 167820 -4100 -1760 -4440 -1760 -4740 -1740 -5150 -1740 -5460 -1720 -5800 -1690 -6120 -1650 -6440 -1600 -6770 -1570 -7130 -1520 -7420 -1470 -7750 -1410 -8120 -1360 -8380 -1300 -8690 -1240 -9020 -1170 -9330 -1110 -9670 -1040 -9940 -980 -10250 -900 -10580 -850 -10850 -770 -11150 -690 -11490 -630 -11750 -560 -12050 -470 -12390 -410 -12630 -340 -12940 -260 -13260 -180 -13550 -120 -13820 -30 0 0zm-349880 -180040l411040 0 -61160 180040 -411040 0 -59440 -90020 120600 -90020zm-120600 90020l30580 -90020 90020 0 -120600 90020zm-509510 1500010l509510 -1500010 180040 0 -509510 1500010 -120600 90020 -59440 -90020zm59440 90020l-90020 0 30580 -90020 59440 90020z"/>
    </g>
   </g>
  </g>
 </g>
</svg>
