<?xml version="1.0" encoding="UTF-8"?>
<!DOCTYPE svg PUBLIC "-//W3C//DTD SVG 1.1//EN" "http://www.w3.org/Graphics/SVG/1.1/DTD/svg11.dtd">
<!-- Creator: CorelDRAW X7 -->
<svg xmlns="http://www.w3.org/2000/svg" xml:space="preserve" width="50.8mm" height="50.8mm" version="1.1" style="shape-rendering:geometricPrecision; text-rendering:geometricPrecision; image-rendering:optimizeQuality; fill-rule:evenodd; clip-rule:evenodd"
viewBox="0 0 5080000 5080000"
 xmlns:xlink="http://www.w3.org/1999/xlink">
 <defs>
  <style type="text/css">
   <![CDATA[
    .str0 {stroke:white;stroke-width:847860;stroke-linecap:square}
    .fil0 {fill:none}
    .fil1 {fill:#29A71A}
    .fil2 {fill:white;fill-rule:nonzero}
   ]]>
  </style>
 </defs>
 <g id="Layer_x0020_1">
  <metadata id="CorelCorpID_0Corel-Layer"/>
  <g id="_1550383838080">
   <g>
    <path class="fil0 str0" d="M2539990 533400c1108200,0 2006590,898380 2006590,2006590 0,414220 -125530,799130 -340620,1118740l213320 795930 -809470 -216900c-309670,195550 -676500,308820 -1069820,308820 -1108210,0 -2006590,-898390 -2006590,-2006590 0,-1108210 898380,-2006590 2006590,-2006590z"/>
    <path id="1" class="fil1" d="M2539990 533400c1108200,0 2006590,898380 2006590,2006590 0,414220 -125530,799130 -340620,1118740l213320 795930 -809470 -216900c-309670,195550 -676500,308820 -1069820,308820 -1108210,0 -2006590,-898390 -2006590,-2006590 0,-1108210 898380,-2006590 2006590,-2006590z"/>
   </g>
   <path class="fil2" d="M1121110 3900770l924420 -2721490 937580 0c211580,0 368830,12670 471500,38640 143570,36110 254440,101360 332820,195120 102500,121630 157050,276200 163880,464980 7460,188780 -30440,404800 -112860,647430 -70140,206520 -156400,389600 -258780,549240 -102370,159640 -209430,292040 -320310,396570 -111530,104530 -221860,186880 -332040,246430 -109770,60180 -233580,105790 -370830,136830 -137880,31050 -288750,46250 -453460,46250l-981920 0zm469550 -319280l580280 0c179280,0 325510,-16470 438920,-50050 113390,-33570 210400,-80450 291870,-141270 113940,-85520 219620,-200810 316190,-345250 96580,-144440 180040,-319280 249970,-525170 96830,-285070 124420,-504260 83360,-657570 -41050,-153300 -119590,-255930 -235610,-307880 -83600,-37370 -232560,-55740 -446680,-55740l-570780 0 -707520 2082930z"/>
   <g>
    <path id="1" class="fil2" d="M2170520 1179280l-924420 2721490 -249980 0 924420 -2721490 167440 -124990 82540 124990zm-249980 0l42460 -124990 124980 0 -167440 124990zm1020120 124990l-937580 0 84900 -249980 937580 0 0 0 -84900 249980zm583520 -208110l-139140 243520 -130 -30 -8320 -2040 -8690 -1990 -9140 -1970 -9440 -1900 -9810 -1840 -10220 -1810 -10550 -1740 -10950 -1680 -11300 -1630 -11630 -1560 -12030 -1510 -12380 -1440 -12690 -1370 -13080 -1300 -13430 -1250 -13750 -1170 -14120 -1100 -14470 -1030 -14820 -970 -15160 -890 -15500 -830 -15840 -760 -16150 -680 -16520 -610 -16880 -540 -17200 -470 -17490 -400 -17900 -320 -18200 -260 -18500 -180 -18890 -110 -19200 -30 84900 -249980 20160 50 19810 110 19580 180 19260 280 18900 340 18670 420 18340 510 18000 580 17740 650 17470 740 17140 820 16840 890 16560 990 16240 1050 15970 1150 15660 1220 15410 1310 15090 1390 14780 1480 14550 1570 14220 1660 13930 1730 13710 1840 13380 1930 13090 2020 12850 2120 12560 2210 12310 2320 12060 2440 11700 2510 11510 2630 11260 2760 -130 -30zm376380 221450l-226260 190860 -190 -230 -6360 -7440 -6520 -7290 -6670 -7150 -6870 -7010 -7020 -6890 -7170 -6720 -7330 -6580 -7510 -6440 -7700 -6320 -7850 -6170 -8010 -6030 -8190 -5880 -8380 -5770 -8530 -5610 -8710 -5470 -8900 -5350 -9070 -5200 -9240 -5060 -9420 -4920 -9610 -4790 -9800 -4640 -9980 -4510 -10170 -4360 -10380 -4240 -10530 -4090 -10690 -3930 -10950 -3810 -11140 -3680 -11300 -3520 -11460 -3370 -11710 -3230 -11900 -3090 139140 -243520 14820 3850 14650 4050 14500 4250 14280 4460 14040 4620 13870 4830 13750 5050 13510 5250 13280 5420 13110 5640 12920 5830 12720 6040 12530 6230 12340 6440 12120 6640 11930 6840 11700 7030 11510 7230 11310 7450 11080 7610 10890 7840 10690 8030 10470 8230 10240 8420 10050 8620 9830 8820 9630 9020 9380 9190 9170 9390 8970 9590 8760 9790 8520 9980 -190 -230zm182670 516100l-263840 88620 -10 -340 -710 -15930 -950 -15720 -1210 -15500 -1460 -15310 -1710 -15100 -1950 -14890 -2210 -14720 -2440 -14480 -2700 -14260 -2940 -14100 -3180 -13890 -3440 -13700 -3670 -13510 -3930 -13350 -4160 -13120 -4400 -12920 -4650 -12760 -4900 -12580 -5140 -12380 -5370 -12190 -5640 -12040 -5890 -11880 -6120 -11680 -6360 -11490 -6620 -11340 -6870 -11190 -7100 -10980 -7360 -10810 -7640 -10700 -7860 -10500 -8110 -10320 -8390 -10180 226260 -190860 10550 12820 10270 13060 9940 13280 9620 13460 9340 13730 9020 13960 8690 14130 8400 14380 8080 14610 7760 14820 7430 15000 7140 15240 6830 15470 6500 15680 6180 15880 5870 16080 5560 16320 5220 16500 4910 16690 4610 16910 4280 17120 3980 17310 3660 17520 3340 17740 3020 17920 2710 18080 2410 18310 2090 18500 1780 18690 1470 18880 1170 19080 850 19270 -10 -340zm-119790 691730l-249980 20 10 -10 7210 -21520 6950 -21350 6710 -21180 6430 -20980 6200 -20830 5930 -20670 5680 -20470 5430 -20310 5180 -20150 4920 -19950 4670 -19800 4420 -19600 4160 -19440 3920 -19290 3660 -19100 3420 -18920 3160 -18750 2920 -18570 2660 -18400 2420 -18250 2170 -18060 1920 -17890 1680 -17720 1430 -17550 1190 -17410 950 -17210 690 -17020 450 -16870 210 -16750 -20 -16530 -280 -16360 -520 -16220 263840 -88620 620 19340 320 19520 40 19650 -250 19770 -530 19950 -830 20140 -1110 20250 -1390 20370 -1670 20550 -1960 20700 -2240 20850 -2530 21000 -2800 21110 -3080 21280 -3360 21430 -3640 21570 -3920 21720 -4200 21840 -4460 21970 -4740 22140 -5020 22300 -5290 22400 -5560 22570 -5840 22690 -6090 22830 -6380 22990 -6650 23110 -6900 23250 -7190 23420 -7450 23540 -7710 23670 -7990 23820 10 -10zm-276370 585340l-214800 -72180 0 0 8710 -13710 8620 -13840 8580 -14030 8480 -14130 8410 -14290 8350 -14450 8270 -14610 8210 -14760 8120 -14890 8030 -15020 7990 -15250 7900 -15330 7800 -15500 7790 -15720 7640 -15750 7590 -15950 7520 -16110 7440 -16280 7370 -16420 7250 -16510 7220 -16760 7130 -16870 7030 -17010 6980 -17180 6890 -17330 6790 -17440 6710 -17610 6650 -17810 6550 -17910 6470 -18070 6400 -18230 6300 -18370 249980 -20 -6940 20210 -7040 20090 -7150 19970 -7270 19850 -7350 19670 -7470 19610 -7590 19480 -7690 19350 -7780 19200 -7910 19110 -8010 18950 -8100 18820 -8250 18770 -8350 18600 -8440 18460 -8560 18350 -8670 18250 -8820 18150 -8870 17920 -9020 17880 -9140 17750 -9210 17570 -9370 17520 -9480 17390 -9570 17220 -9690 17110 -9810 16990 -9930 16890 -10060 16750 -10140 16590 -10300 16520 -10390 16350 0 0zm-351600 433990l-152220 -147020 -440 410 8990 -8560 9010 -8730 9010 -8890 8990 -9040 9030 -9250 9080 -9440 9010 -9560 9020 -9730 9070 -9940 9090 -10140 9050 -10250 9070 -10450 9050 -10600 9080 -10810 9110 -11020 9030 -11090 9080 -11330 9090 -11500 9070 -11680 9090 -11850 9050 -12000 9080 -12210 9070 -12380 9070 -12550 9030 -12690 9010 -12840 9060 -13110 9060 -13280 9000 -13360 9010 -13590 9010 -13770 8990 -13920 214800 72180 -10230 15860 -10270 15670 -10310 15550 -10400 15460 -10380 15200 -10420 15070 -10530 15020 -10570 14830 -10590 14670 -10630 14500 -10680 14370 -10750 14240 -10770 14070 -10830 13920 -10870 13780 -10920 13630 -11030 13550 -11010 13280 -11060 13190 -11170 13060 -11170 12890 -11270 12770 -11250 12540 -11330 12440 -11420 12310 -11490 12160 -11460 11940 -11550 11830 -11650 11700 -11650 11510 -11730 11370 -11770 11200 -440 410zm-373530 276580l-69240 -207320 1030 -560 8640 -4720 8610 -4820 8680 -4980 8730 -5100 8680 -5200 8750 -5340 8790 -5490 8810 -5610 8820 -5720 8840 -5850 8890 -6000 8950 -6150 8930 -6230 8910 -6350 8990 -6520 9050 -6670 9120 -6840 9060 -6890 9100 -7050 9160 -7200 9140 -7300 9220 -7480 9240 -7610 9260 -7740 9260 -7840 9320 -8020 9420 -8210 9340 -8250 9400 -8430 9470 -8580 9450 -8700 9490 -8830 152220 147020 -11410 10630 -11450 10520 -11410 10360 -11460 10270 -11520 10170 -11420 9950 -11500 9900 -11560 9800 -11540 9640 -11560 9510 -11560 9380 -11640 9300 -11600 9120 -11660 9030 -11700 8910 -11620 8700 -11670 8610 -11730 8500 -11810 8410 -11790 8250 -11750 8070 -11810 7960 -11860 7850 -11860 7700 -11870 7550 -11890 7410 -11930 7300 -11980 7160 -11950 7000 -11980 6860 -12050 6740 -12020 6580 1030 -560zm-417090 154600l23280 -242860 -140 30 11660 -2680 11560 -2750 11460 -2820 11300 -2890 11270 -2970 11230 -3050 11080 -3110 10930 -3160 10870 -3240 10850 -3330 10600 -3350 10610 -3460 10490 -3510 10390 -3590 10300 -3630 10110 -3690 10190 -3810 10010 -3840 9880 -3890 9810 -3970 9650 -4000 9600 -4090 9510 -4150 9430 -4230 9330 -4270 9240 -4350 9110 -4380 9050 -4470 8930 -4500 8850 -4590 8780 -4640 8630 -4680 69240 207320 -12030 6520 -12060 6380 -12130 6270 -12230 6180 -12270 6050 -12370 5960 -12420 5830 -12470 5730 -12550 5610 -12610 5510 -12700 5410 -12810 5320 -12810 5170 -12900 5090 -12950 4960 -12910 4830 -13150 4790 -13140 4650 -13190 4550 -13270 4430 -13290 4340 -13460 4250 -13390 4110 -13510 4040 -13630 3940 -13620 3810 -13630 3710 -13750 3630 -13880 3530 -13880 3420 -13940 3330 -14000 3220 -140 30zm-484270 49810l84900 -249980 0 0 14670 -30 14570 -140 14530 -210 14340 -290 14300 -390 14240 -460 14100 -550 14020 -630 13920 -720 13830 -800 13690 -880 13630 -980 13600 -1060 13420 -1120 13350 -1230 13260 -1300 13180 -1390 13070 -1460 12940 -1550 12890 -1630 12800 -1710 12650 -1790 12600 -1880 12520 -1960 12370 -2030 12330 -2120 12170 -2190 12150 -2290 12060 -2360 11840 -2420 11850 -2520 11760 -2600 -23280 242860 -14160 3120 -14230 3040 -14400 2940 -14340 2800 -14390 2710 -14510 2610 -14530 2500 -14630 2410 -14640 2280 -14700 2200 -14830 2090 -14820 1990 -14890 1890 -15000 1790 -15010 1680 -15080 1590 -15140 1480 -15210 1390 -15320 1300 -15280 1180 -15390 1100 -15510 1000 -15530 900 -15600 800 -15660 710 -15720 610 -15760 520 -15860 430 -15980 330 -15950 230 -16070 140 -16130 50 0 0zm-897020 -249980l981920 0 -84900 249980 -981920 0 -82540 -124990 167440 -124990zm-84900 249980l-125000 0 42460 -124990 82540 124990zm1049830 -319280l-580280 0 84900 -249980 580280 0 0 0 -84900 249980zm482620 -293760l-2500 237440 10 0 -12840 3710 -13040 3580 -13100 3410 -13160 3260 -13340 3130 -13460 2990 -13580 2860 -13730 2730 -13870 2600 -14000 2470 -14140 2350 -14210 2210 -14430 2110 -14570 1980 -14660 1870 -14860 1760 -15020 1640 -15160 1530 -15280 1410 -15430 1310 -15640 1200 -15800 1090 -15960 980 -16080 870 -16240 770 -16460 670 -16570 560 -16750 460 -16950 350 -17120 260 -17260 140 -17420 60 84900 -249980 16000 -40 15780 -140 15520 -220 15310 -330 15130 -420 14910 -500 14640 -590 14480 -690 14240 -770 13980 -860 13760 -950 13520 -1040 13350 -1130 13120 -1210 12840 -1290 12600 -1380 12380 -1460 12180 -1550 11910 -1620 11650 -1710 11470 -1790 11180 -1850 10920 -1930 10670 -2000 10410 -2070 10180 -2140 9920 -2210 9660 -2270 9460 -2340 9120 -2370 8800 -2420 8620 -2490 10 0zm231830 -110600l117580 176100 -420 320 -9780 7210 -9830 7050 -9910 6930 -10130 6900 -10100 6690 -10180 6570 -10380 6530 -10400 6350 -10430 6210 -10510 6080 -10580 5970 -10700 5880 -10780 5750 -10850 5630 -10900 5500 -10990 5390 -11070 5280 -11100 5150 -11140 5010 -11270 4950 -11430 4850 -11410 4700 -11410 4570 -11520 4480 -11610 4370 -11620 4250 -11750 4160 -11840 4060 -11890 3950 -11960 3850 -11960 3710 -12060 3640 2500 -237440 9100 -2740 9020 -2810 8820 -2830 8710 -2890 8560 -2940 8450 -3000 8400 -3070 8210 -3090 8120 -3160 8050 -3210 7850 -3240 7650 -3250 7610 -3330 7560 -3410 7400 -3430 7270 -3460 7130 -3510 7060 -3560 6910 -3590 6800 -3630 6680 -3660 6620 -3730 6510 -3780 6410 -3810 6260 -3830 6080 -3810 6100 -3950 6000 -3970 5790 -3940 5810 -4070 5730 -4110 5580 -4110 -420 320zm269520 -296260l210920 78120 0 -10 -9970 14780 -10090 14670 -10130 14470 -10210 14310 -10350 14210 -10380 14000 -10480 13870 -10580 13720 -10670 13570 -10730 13380 -10840 13260 -10960 13120 -10970 12870 -11110 12790 -11200 12610 -11260 12420 -11410 12340 -11490 12130 -11530 11930 -11630 11770 -11750 11640 -11850 11470 -11890 11260 -12030 11140 -12120 10950 -12220 10780 -12210 10530 -12390 10430 -12480 10240 -12520 10030 -12710 9910 -12700 9650 -117580 -176100 8620 -6550 8510 -6650 8600 -6890 8540 -7000 8530 -7190 8610 -7410 8520 -7520 8500 -7690 8510 -7860 8530 -8080 8490 -8210 8470 -8400 8510 -8610 8490 -8790 8450 -8930 8410 -9080 8460 -9340 8420 -9490 8410 -9670 8450 -9930 8360 -10000 8360 -10240 8390 -10440 8330 -10610 8320 -10780 8300 -10990 8320 -11200 8230 -11330 8270 -11590 8250 -11750 8170 -11890 8190 -12140 0 -10zm230440 -486110l249980 0 0 0 -6920 20130 -6990 19930 -7110 19860 -7190 19630 -7270 19450 -7390 19330 -7460 19140 -7570 19000 -7660 18810 -7740 18650 -7870 18540 -7960 18340 -8030 18150 -8160 18050 -8230 17830 -8340 17700 -8460 17580 -8540 17350 -8620 17190 -8760 17100 -8870 16920 -8930 16710 -9070 16620 -9170 16450 -9270 16260 -9370 16110 -9480 15960 -9590 15800 -9720 15660 -9800 15460 -9910 15320 -10050 15200 -210920 -78120 7990 -12060 7950 -12300 7940 -12520 7840 -12660 7830 -12900 7780 -13080 7730 -13290 7690 -13500 7630 -13670 7570 -13860 7550 -14130 7470 -14260 7400 -14460 7400 -14730 7320 -14910 7260 -15060 7200 -15300 7170 -15510 7080 -15670 7050 -15930 6980 -16100 6890 -16240 6860 -16510 6800 -16710 6730 -16900 6680 -17100 6590 -17270 6550 -17530 6490 -17690 6390 -17840 6350 -18130 6280 -18290 0 0zm79490 -592680l257720 -129780 0 0 4340 17320 3820 17640 3350 18010 2850 18380 2370 18730 1890 19080 1410 19380 950 19720 490 20090 20 20420 -420 20720 -880 21100 -1330 21410 -1760 21720 -2200 22080 -2640 22400 -3070 22750 -3510 23080 -3920 23400 -4360 23740 -4770 24050 -5190 24410 -5610 24750 -6030 25080 -6440 25420 -6850 25770 -7270 26100 -7670 26460 -8100 26810 -8500 27130 -8900 27470 -9300 27840 -249980 0 8440 -25220 8040 -24830 7640 -24390 7220 -23930 6830 -23520 6430 -23100 6030 -22670 5640 -22240 5230 -21800 4850 -21370 4450 -20930 4070 -20530 3680 -20060 3300 -19620 2910 -19180 2530 -18750 2160 -18300 1780 -17860 1420 -17460 1050 -16970 680 -16540 340 -16120 -20 -15660 -370 -15230 -710 -14800 -1050 -14380 -1370 -13920 -1710 -13490 -2030 -13060 -2350 -12670 -2660 -12260 -2960 -11820 0 0zm-191550 -256250l169600 -233040 50 20 13140 6130 12890 6490 12610 6860 12290 7190 12060 7560 11780 7930 11450 8240 11200 8600 10910 8960 10600 9270 10310 9610 10030 9950 9720 10270 9410 10560 9160 10920 8860 11230 8550 11520 8270 11830 7990 12160 7690 12430 7420 12750 7120 13030 6850 13320 6560 13610 6280 13870 6030 14210 5740 14480 5470 14720 5210 15050 4940 15320 4660 15560 4420 15860 -257720 129780 -3500 -12580 -3700 -12300 -3840 -11940 -4030 -11610 -4210 -11360 -4360 -11000 -4530 -10670 -4720 -10410 -4860 -10090 -5030 -9780 -5180 -9490 -5340 -9170 -5490 -8890 -5630 -8560 -5810 -8310 -5950 -8020 -6080 -7710 -6240 -7440 -6410 -7180 -6540 -6910 -6670 -6610 -6830 -6370 -6980 -6110 -7110 -5840 -7260 -5580 -7450 -5360 -7560 -5090 -7720 -4840 -7930 -4630 -8050 -4380 -8190 -4130 -8400 -3910 50 20zm-404330 -47270l84900 -249980 0 0 20580 60 20190 170 19830 270 19540 400 19120 510 18760 620 18450 730 18090 850 17750 970 17390 1090 17000 1210 16720 1320 16350 1450 15990 1570 15720 1700 15350 1830 14970 1950 14680 2080 14360 2220 14030 2360 13720 2490 13370 2650 13120 2790 12760 2960 12410 3100 12130 3260 11880 3460 11550 3630 11230 3810 10940 4020 10660 4220 10390 4460 -169600 233040 -5670 -2440 -6160 -2440 -6660 -2440 -7110 -2410 -7570 -2390 -8020 -2320 -8510 -2300 -9010 -2240 -9420 -2180 -9840 -2110 -10330 -2030 -10760 -1970 -11210 -1880 -11660 -1800 -12100 -1720 -12550 -1630 -12970 -1550 -13340 -1440 -13850 -1350 -14230 -1270 -14660 -1160 -15120 -1070 -15490 -970 -15910 -870 -16330 -770 -16730 -670 -17180 -560 -17600 -470 -17940 -360 -18410 -250 -18810 -170 -19180 -40 0 0zm-485880 -249980l570780 0 -84900 249980 -570780 0 -82530 -124990 167430 -124990zm-167430 124990l42460 -124990 124970 0 -167430 124990zm-707520 2082930l707520 -2082930 249960 0 -707520 2082930 -167430 124990 -82530 -124990zm82530 124990l-124990 0 42460 -124990 82530 124990z"/>
   </g>
  </g>
 </g>
</svg>
