<?xml version="1.0" encoding="UTF-8"?>
<!DOCTYPE svg PUBLIC "-//W3C//DTD SVG 1.1//EN" "http://www.w3.org/Graphics/SVG/1.1/DTD/svg11.dtd">
<!-- Creator: CorelDRAW X7 -->
<svg xmlns="http://www.w3.org/2000/svg" xml:space="preserve" width="75mm" height="27mm" version="1.1" style="shape-rendering:geometricPrecision; text-rendering:geometricPrecision; image-rendering:optimizeQuality; fill-rule:evenodd; clip-rule:evenodd"
viewBox="0 0 7500 2700"
 xmlns:xlink="http://www.w3.org/1999/xlink">
 <defs>
  <style type="text/css">
   <![CDATA[
    .str0 {stroke:white;stroke-width:443.49;stroke-linecap:square}
    .fil1 {fill:none;fill-rule:nonzero}
    .fil2 {fill:#29A71A}
    .fil0 {fill:white;fill-rule:nonzero}
   ]]>
  </style>
 </defs>
 <g id="Layer_x0020_1">
  <metadata id="CorelCorpID_0Corel-Layer"/>
  <g id="_1463031090624">
   <g>
    <g>
     <polygon class="fil0" points="2703,267 2838,853 2868,1016 2897,856 3013,267 3239,267 3360,852 3392,1016 3423,859 3560,267 3776,267 3489,1290 3285,1290 3161,691 3125,494 3088,692 2965,1290 2767,1290 2476,267 "/>
     <path id="_1" class="fil0" d="M4304 513c47,0 89,8 127,24 38,16 69,41 94,74 20,29 33,58 38,88 4,30 7,78 7,146l0 445 -204 0 0 -461c0,-41 -6,-74 -20,-99 -18,-35 -52,-53 -102,-53 -51,0 -90,18 -117,53 -27,35 -40,85 -40,150l0 410 -198 0 0 -1019 198 0 0 360c28,-44 61,-75 99,-92 37,-18 77,-26 118,-26z"/>
     <path id="_2" class="fil0" d="M5175 922c-12,8 -25,14 -38,19 -13,5 -31,10 -53,14l-45 8c-42,8 -72,17 -91,27 -31,18 -46,46 -46,84 0,34 9,59 28,74 19,15 42,22 69,22 44,0 83,-12 120,-37 36,-25 55,-71 56,-137l0 -74zm-121 -92c37,-5 63,-10 79,-17 29,-12 43,-31 43,-56 0,-31 -11,-53 -33,-65 -22,-11 -54,-17 -96,-17 -47,0 -80,11 -100,34 -14,17 -24,40 -28,69l-191 0c5,-66 23,-120 56,-163 53,-66 143,-99 270,-99 83,0 157,16 221,49 65,33 97,95 97,186l0 346c0,24 0,53 1,88 2,25 6,43 12,52 7,9 16,17 29,23l0 30 -215 0c-5,-16 -10,-30 -12,-43 -2,-13 -4,-29 -5,-46 -28,30 -59,55 -95,76 -43,24 -91,37 -145,37 -69,0 -126,-20 -170,-59 -45,-39 -68,-94 -68,-166 0,-93 36,-160 108,-202 40,-23 98,-39 175,-49l67 -8z"/>
     <path id="_3" class="fil0" d="M5467 680l0 -139 105 0 0 -213 196 0 0 213 122 0 0 139 -122 0 0 401c0,31 4,50 12,58 8,8 32,11 72,11 6,0 12,0 19,0 6,-1 13,-1 19,-2l0 147 -93 5c-94,3 -157,-13 -191,-49 -23,-23 -34,-58 -34,-105l0 -466 -105 0z"/>
     <path id="_4" class="fil0" d="M6170 1048c5,35 14,61 28,75 24,27 70,40 136,40 39,0 70,-6 93,-17 23,-12 34,-29 34,-52 0,-23 -9,-40 -27,-51 -19,-12 -88,-32 -207,-60 -86,-21 -146,-48 -181,-80 -36,-31 -53,-76 -53,-135 0,-70 27,-130 82,-180 55,-50 132,-75 232,-75 94,0 171,18 231,56 59,38 94,103 102,195l-197 0c-3,-25 -10,-46 -22,-60 -21,-27 -59,-41 -111,-41 -43,0 -74,7 -92,20 -19,14 -28,30 -28,48 0,22 10,39 30,49 19,11 88,29 206,55 79,18 138,46 177,84 39,38 59,85 59,142 0,75 -28,136 -84,183 -56,48 -142,71 -259,71 -119,0 -207,-25 -264,-75 -57,-50 -85,-114 -85,-192l200 0z"/>
    </g>
    <g>
     <path class="fil0" d="M3561 1561l0 670 199 0c101,0 172,-50 212,-150 22,-54 33,-120 33,-195 0,-105 -17,-185 -50,-241 -32,-56 -98,-84 -195,-84l-199 0zm235 -176c63,1 116,8 159,22 72,23 130,67 174,130 36,51 60,106 73,165 13,59 20,116 20,169 0,136 -28,251 -82,346 -74,127 -189,190 -344,190l-442 0 0 -1022 442 0z"/>
     <path id="_1_0" class="fil0" d="M4567 1561l-200 0 0 -182 200 0 0 182zm-200 89l200 0 0 757 -200 0 0 -757z"/>
     <path id="_2_1" class="fil0" d="M5168 1633c4,0 7,0 10,1 2,0 8,0 17,1l0 203c-13,-2 -24,-3 -34,-3 -9,-1 -17,-1 -23,-1 -80,0 -133,25 -160,77 -16,29 -23,74 -23,135l0 361 -198 0 0 -757 188 0 0 133c30,-50 57,-85 79,-103 37,-31 85,-47 144,-47z"/>
     <path id="_3_2" class="fil0" d="M5626 1795c-51,0 -90,14 -118,42 -28,28 -46,66 -53,114l341 0c-4,-51 -21,-89 -53,-116 -31,-26 -71,-40 -117,-40zm1 -164c66,0 125,11 178,35 52,23 96,61 130,112 31,44 51,97 60,156 6,34 8,84 7,150l-551 0c3,76 29,129 79,160 30,19 66,28 109,28 45,0 81,-11 109,-34 16,-13 29,-30 41,-52l203 0c-5,45 -30,90 -73,137 -68,73 -163,110 -284,110 -101,0 -190,-31 -266,-93 -77,-62 -116,-163 -116,-303 0,-131 35,-232 104,-302 70,-69 159,-104 270,-104z"/>
     <path id="_4_3" class="fil0" d="M6553 1923c-3,-28 -13,-54 -28,-76 -22,-31 -56,-46 -103,-46 -66,0 -111,33 -135,99 -13,35 -19,82 -19,140 0,55 6,100 19,134 23,63 67,94 131,94 46,0 78,-12 97,-37 19,-25 31,-58 35,-98l203 0c-4,60 -26,117 -65,170 -62,87 -153,130 -274,130 -122,0 -211,-36 -268,-108 -57,-72 -86,-165 -86,-280 0,-130 32,-231 95,-303 63,-72 151,-109 262,-109 94,0 172,22 232,64 61,43 96,118 107,226l-203 0z"/>
     <path id="_5" class="fil0" d="M6815 1798l0 -139 105 0 0 -213 196 0 0 213 122 0 0 139 -122 0 0 401c0,31 4,50 12,58 7,7 31,11 71,11 6,0 13,0 19,0 7,-1 13,-2 20,-3l0 148 -94 4c-93,4 -157,-13 -191,-48 -22,-23 -33,-58 -33,-105l0 -466 -105 0z"/>
    </g>
   </g>
   <g>
    <g>
     <path class="fil1 str0" d="M1312 300c579,0 1049,470 1049,1050 0,217 -65,418 -178,585l112 417 -424 -114c-162,102 -354,162 -559,162 -580,0 -1050,-470 -1050,-1050 0,-580 470,-1050 1050,-1050z"/>
     <path id="_1_4" class="fil2" d="M1312 300c579,0 1049,470 1049,1050 0,217 -65,418 -178,585l112 417 -424 -114c-162,102 -354,162 -559,162 -580,0 -1050,-470 -1050,-1050 0,-580 470,-1050 1050,-1050z"/>
    </g>
    <path class="fil0" d="M570 2062l483 -1424 491 0c110,0 192,7 246,20 75,19 133,53 174,102 54,64 82,145 86,244 4,98 -16,211 -59,338 -37,108 -82,204 -135,288 -54,83 -110,152 -168,207 -58,55 -116,98 -174,129 -57,32 -122,55 -194,72 -72,16 -151,24 -237,24l-513 0zm245 -167l304 0c93,0 170,-9 229,-26 60,-18 110,-42 153,-74 60,-45 115,-105 165,-181 51,-75 95,-167 131,-275 51,-149 65,-263 44,-344 -22,-80 -63,-133 -124,-161 -43,-19 -121,-29 -233,-29l-299 0 -370 1090z"/>
    <g>
     <path id="_1_5" class="fil0" d="M1118 638l-483 1424 -131 0 484 -1424 87 -65 43 65zm-130 0l22 -65 65 0 -87 65zm533 66l-490 0 44 -131 491 0 0 0 -45 131zm306 -109l-73 127 0 0 -5 -1 -4 -1 -5 -1 -5 -1 -5 -1 -5 -1 -6 -1 -6 -1 -6 -1 -6 0 -6 -1 -6 -1 -7 -1 -7 0 -7 -1 -7 -1 -7 0 -8 -1 -8 0 -8 -1 -8 0 -8 -1 -9 0 -8 0 -9 0 -9 -1 -9 0 -10 0 -9 0 -10 0 -10 0 -10 0 45 -131 10 0 11 0 10 0 10 0 10 0 10 1 9 0 10 0 9 0 9 1 9 0 9 1 8 0 9 1 8 0 9 1 8 1 7 0 8 1 8 1 7 1 8 1 7 1 7 1 7 1 6 1 7 1 6 1 7 2 6 1 6 1 6 2 0 0zm196 116l-118 99 0 0 -3 -4 -4 -3 -3 -4 -4 -4 -3 -3 -4 -4 -4 -3 -4 -4 -4 -3 -4 -3 -4 -3 -5 -4 -4 -3 -4 -2 -5 -3 -5 -3 -4 -3 -5 -2 -5 -3 -5 -3 -5 -2 -6 -2 -5 -3 -5 -2 -6 -2 -5 -2 -6 -2 -6 -2 -6 -2 -6 -2 -6 -1 -6 -2 73 -127 7 2 8 2 8 2 7 2 7 3 8 2 7 3 7 3 7 3 7 3 6 3 7 3 7 3 6 3 6 4 7 3 6 4 6 4 6 4 6 4 5 4 6 4 5 4 6 5 5 4 5 5 5 5 5 4 5 5 5 5 4 5 5 6 -1 0zm96 270l-138 46 0 0 0 -9 -1 -8 -1 -8 0 -8 -1 -8 -1 -8 -1 -7 -2 -8 -1 -7 -2 -8 -1 -7 -2 -7 -2 -7 -2 -7 -2 -7 -3 -7 -2 -7 -3 -6 -2 -7 -3 -6 -3 -6 -3 -6 -3 -7 -4 -6 -3 -6 -4 -5 -3 -6 -4 -6 -4 -5 -4 -6 -5 -5 -4 -6 118 -99 6 6 5 7 6 7 5 7 4 7 5 8 5 7 4 7 4 8 4 8 4 8 4 8 4 8 3 8 3 8 3 9 3 8 3 9 3 9 2 8 2 9 2 9 2 10 2 9 1 9 2 10 1 9 1 10 1 10 1 10 1 10 0 10 0 0zm-63 361l-130 0 0 0 3 -11 4 -11 3 -11 4 -11 3 -11 3 -11 3 -11 3 -10 3 -11 2 -10 3 -10 2 -11 2 -10 2 -10 2 -10 2 -10 2 -10 1 -9 2 -10 1 -10 1 -9 1 -9 1 -10 1 -9 0 -9 1 -9 0 -9 0 -9 0 -8 0 -9 0 -9 0 -8 138 -46 0 10 0 10 1 10 -1 10 0 11 0 10 -1 11 -1 11 -1 10 -1 11 -1 11 -1 11 -1 11 -2 11 -2 12 -2 11 -2 11 -2 12 -2 11 -3 12 -2 11 -3 12 -3 12 -3 12 -3 12 -4 12 -3 12 -4 12 -4 12 -3 13 -4 12 -5 12 0 0zm-144 307l-113 -38 0 0 5 -7 4 -8 5 -7 4 -7 5 -8 4 -7 4 -8 5 -8 4 -8 4 -7 4 -8 5 -8 4 -9 4 -8 4 -8 4 -8 4 -9 3 -8 4 -9 4 -8 4 -9 4 -9 3 -9 4 -9 4 -9 3 -9 4 -9 3 -10 4 -9 3 -9 3 -10 4 -10 130 0 -3 11 -4 10 -4 11 -4 10 -3 11 -4 10 -4 10 -4 10 -4 10 -4 10 -5 10 -4 10 -4 10 -5 10 -4 9 -4 10 -5 9 -5 10 -4 9 -5 10 -5 9 -5 9 -4 9 -5 9 -5 9 -6 9 -5 9 -5 9 -5 9 -5 8 -6 9 -5 9 0 0zm-184 227l-80 -77 0 0 5 -5 4 -4 5 -5 5 -5 5 -4 4 -5 5 -5 5 -5 5 -6 4 -5 5 -5 5 -6 4 -5 5 -6 5 -6 5 -6 4 -5 5 -6 5 -7 5 -6 4 -6 5 -6 5 -7 5 -6 4 -7 5 -7 5 -7 5 -7 4 -7 5 -7 5 -7 4 -7 113 38 -6 8 -5 8 -5 8 -6 8 -5 8 -6 8 -5 8 -6 8 -5 7 -6 8 -5 7 -6 8 -6 7 -5 8 -6 7 -6 7 -5 7 -6 7 -6 7 -6 7 -6 6 -6 7 -6 7 -5 6 -6 7 -6 6 -6 6 -6 6 -7 7 -6 6 -6 6 -6 5 0 1zm-196 144l-36 -108 1 0 4 -3 5 -3 4 -2 5 -3 4 -2 5 -3 5 -3 4 -3 5 -3 4 -3 5 -3 5 -3 4 -4 5 -3 5 -3 5 -4 4 -4 5 -3 5 -4 5 -4 4 -3 5 -4 5 -4 5 -4 5 -4 5 -5 5 -4 4 -4 5 -5 5 -4 5 -5 5 -4 80 77 -6 5 -6 6 -6 5 -6 5 -6 6 -6 5 -6 5 -6 5 -6 5 -6 5 -6 5 -6 5 -6 5 -6 5 -7 4 -6 5 -6 4 -6 5 -6 4 -6 4 -6 5 -7 4 -6 4 -6 4 -6 4 -6 4 -7 4 -6 3 -6 4 -7 4 -6 3 -6 4 0 -1zm-218 81l12 -127 0 0 7 -1 5 -2 6 -1 6 -2 6 -1 6 -2 6 -2 6 -1 5 -2 6 -2 6 -1 5 -2 6 -2 5 -2 6 -2 5 -2 5 -2 5 -2 6 -2 5 -2 5 -2 5 -2 5 -2 5 -2 5 -3 4 -2 5 -2 5 -3 4 -2 5 -2 5 -3 4 -2 36 108 -6 4 -6 3 -6 3 -7 4 -6 3 -7 3 -6 3 -7 3 -6 3 -7 3 -7 2 -6 3 -7 3 -7 3 -6 2 -7 3 -7 2 -7 3 -7 2 -7 2 -7 3 -7 2 -7 2 -7 2 -7 2 -7 2 -7 2 -8 2 -7 2 -7 2 -7 1 -8 2 0 0zm-253 26l44 -131 0 0 8 0 8 0 7 0 8 0 7 0 8 0 7 -1 7 0 8 0 7 -1 7 0 7 -1 7 0 7 -1 7 -1 7 0 7 -1 7 -1 7 -1 7 0 6 -1 7 -1 6 -1 7 -1 6 -1 7 -1 6 -2 7 -1 6 -1 6 -1 6 -2 6 -1 -12 127 -7 2 -8 1 -7 2 -8 1 -7 2 -8 1 -7 1 -8 2 -8 1 -7 1 -8 1 -8 1 -8 1 -7 1 -8 1 -8 1 -8 1 -8 0 -8 1 -8 1 -8 0 -8 1 -8 0 -9 1 -8 0 -8 0 -8 1 -9 0 -8 0 -8 0 -9 0 -8 0 0 0zm-469 -131l513 0 -44 131 -514 0 -43 -65 88 -66zm-45 131l-65 0 22 -65 43 65zm549 -167l-303 0 44 -131 304 0 0 0 -45 131zm253 -154l-1 125 0 0 -7 2 -7 2 -7 1 -7 2 -7 2 -7 1 -7 2 -7 1 -7 1 -8 2 -7 1 -7 1 -8 1 -8 1 -7 1 -8 1 -8 1 -8 1 -8 1 -8 0 -8 1 -8 0 -9 1 -8 0 -9 1 -8 0 -9 1 -9 0 -8 0 -9 0 -9 0 -10 0 45 -131 8 0 9 0 8 0 8 0 8 0 7 0 8 -1 8 0 7 -1 7 0 8 0 7 -1 7 -1 6 0 7 -1 7 -1 6 0 7 -1 6 -1 6 -1 6 -1 6 -1 6 -1 5 -1 6 -1 5 -1 5 -1 5 -1 5 -2 5 -1 4 -1 5 -2 0 0zm121 -57l62 92 -1 0 -5 4 -5 3 -5 4 -5 4 -6 3 -5 4 -5 3 -6 3 -5 4 -6 3 -5 3 -6 3 -5 3 -6 3 -6 3 -6 3 -5 2 -6 3 -6 3 -6 2 -6 3 -6 2 -6 3 -6 2 -6 2 -6 2 -6 3 -6 2 -7 2 -6 2 -6 2 -6 2 1 -125 5 -1 4 -1 5 -2 5 -1 4 -2 4 -1 5 -2 4 -2 4 -1 5 -2 4 -2 4 -1 4 -2 4 -2 4 -2 3 -2 4 -1 4 -2 3 -2 4 -2 3 -2 4 -2 3 -2 4 -2 3 -2 3 -2 3 -2 3 -2 3 -2 4 -2 3 -2 2 -3 0 1zm141 -155l111 41 0 0 -6 7 -5 8 -5 7 -6 8 -5 7 -5 8 -6 7 -5 7 -6 7 -6 7 -5 7 -6 7 -6 7 -6 7 -5 6 -6 7 -6 6 -6 6 -6 7 -6 6 -7 6 -6 6 -6 6 -6 6 -7 5 -6 6 -6 5 -7 6 -6 5 -7 6 -7 5 -6 5 -62 -92 5 -4 4 -3 5 -4 4 -4 5 -3 4 -4 5 -4 4 -4 4 -4 5 -4 4 -5 5 -4 4 -5 5 -4 4 -5 5 -5 4 -5 4 -5 5 -5 4 -5 5 -5 4 -5 4 -6 5 -5 4 -6 4 -6 5 -6 4 -6 4 -6 5 -6 4 -6 4 -6 0 0zm121 -255l131 0 0 0 -4 11 -4 10 -3 11 -4 10 -4 10 -4 10 -4 10 -4 10 -4 10 -4 10 -4 10 -4 9 -4 10 -5 9 -4 9 -4 10 -5 9 -4 9 -5 9 -4 9 -5 9 -5 8 -4 9 -5 9 -5 8 -5 9 -5 8 -5 8 -5 8 -5 9 -5 8 -5 8 -111 -41 4 -7 5 -6 4 -7 4 -6 4 -7 4 -7 4 -7 4 -7 4 -7 4 -7 4 -8 4 -7 4 -8 4 -7 3 -8 4 -8 4 -8 4 -8 3 -8 4 -9 4 -8 3 -9 4 -8 4 -9 3 -9 4 -9 3 -9 3 -9 4 -9 3 -10 3 -9 4 -10 0 0zm41 -310l135 -68 0 0 2 10 2 9 2 9 2 10 1 10 1 10 1 10 0 10 0 11 0 10 0 11 0 11 -1 11 -1 12 -1 11 -1 12 -2 12 -2 12 -2 12 -2 13 -3 12 -2 13 -3 13 -4 13 -3 13 -3 14 -4 13 -4 14 -5 14 -4 14 -5 15 -4 14 -131 0 4 -13 4 -13 4 -13 4 -12 4 -12 3 -12 3 -12 3 -12 3 -11 2 -11 3 -11 2 -11 2 -11 2 -10 1 -10 1 -10 2 -9 0 -10 1 -9 1 -9 0 -8 0 -9 0 -8 0 -8 0 -8 -1 -7 -1 -8 0 -7 -2 -6 -1 -7 -1 -6 -2 -7 0 0zm-100 -134l89 -122 0 0 7 4 6 3 7 4 7 3 6 4 6 4 6 5 6 4 6 5 5 5 5 5 6 5 5 5 5 6 5 6 4 6 5 6 4 6 4 6 4 7 4 6 4 7 3 7 4 7 3 7 3 8 3 7 3 8 3 8 2 8 3 8 2 8 -135 68 -2 -6 -1 -7 -2 -6 -3 -6 -2 -6 -2 -6 -2 -5 -3 -6 -2 -5 -3 -5 -3 -5 -3 -5 -2 -4 -3 -5 -3 -4 -4 -4 -3 -5 -3 -3 -3 -4 -4 -4 -3 -3 -4 -4 -3 -3 -4 -3 -4 -3 -4 -3 -4 -2 -4 -3 -4 -2 -4 -2 -5 -3 -4 -2 0 0zm-211 -24l44 -131 0 0 11 0 10 0 11 0 10 0 10 1 10 0 9 0 10 1 9 0 9 1 9 0 9 1 8 1 9 1 8 1 8 1 8 1 8 1 7 1 7 1 8 1 7 2 6 1 7 2 7 1 6 2 6 2 6 2 6 2 6 2 5 2 6 2 -89 122 -3 -1 -3 -1 -4 -1 -3 -2 -4 -1 -4 -1 -5 -1 -5 -2 -5 -1 -5 -1 -5 -1 -6 -1 -6 -1 -6 -1 -6 -1 -7 -1 -6 0 -7 -1 -8 -1 -7 -1 -8 0 -8 -1 -8 0 -8 -1 -9 0 -8 0 -9 -1 -10 0 -9 0 -9 0 -10 0 -10 0 0 0zm-255 -131l299 0 -44 131 -299 0 -43 -66 87 -65zm-87 65l22 -65 65 0 -87 65zm-370 1090l370 -1090 131 0 -370 1090 -88 65 -43 -65zm43 65l-65 0 22 -65 43 65z"/>
    </g>
   </g>
  </g>
 </g>
</svg>
