<?xml version="1.0" encoding="UTF-8"?>
<!DOCTYPE svg PUBLIC "-//W3C//DTD SVG 1.1//EN" "http://www.w3.org/Graphics/SVG/1.1/DTD/svg11.dtd">
<!-- Creator: CorelDRAW X7 -->
<svg xmlns="http://www.w3.org/2000/svg" xml:space="preserve" width="210mm" height="297mm" version="1.1" style="shape-rendering:geometricPrecision; text-rendering:geometricPrecision; image-rendering:optimizeQuality; fill-rule:evenodd; clip-rule:evenodd"
viewBox="0 0 21000 29700"
 xmlns:xlink="http://www.w3.org/1999/xlink">
 <defs>
  <style type="text/css">
   <![CDATA[
    .fil4 {fill:#FEFEFE}
    .fil2 {fill:#F9DF3E}
    .fil0 {fill:#CCCDCC}
    .fil1 {fill:#26AC58}
    .fil5 {fill:#27AC57}
    .fil3 {fill:#384176}
   ]]>
  </style>
 </defs>
 <g id="Layer_x0020_1">
  <metadata id="CorelCorpID_0Corel-Layer"/>
  <g id="_3094409987264">
   <path class="fil0" d="M12360 6914c-407,-246 -814,246 -1220,0 0,-274 0,-547 0,-820 406,246 813,-246 1220,0 0,273 0,546 0,820z"/>
   <path class="fil1" d="M12350 6898c0,-267 0,-533 0,-800 -400,-231 -800,241 -1200,12 0,266 0,533 0,800 400,229 800,-243 1200,-12z"/>
   <path class="fil2" d="M12249 6451c-166,-156 -331,-212 -497,-268 -1,0 -2,0 -3,1 -166,156 -332,312 -497,367 -1,1 -2,1 -2,2 0,1 1,2 2,3 165,156 331,212 497,268 0,0 1,0 1,0 1,0 1,-1 2,-1 166,-156 331,-312 497,-367 1,0 1,-1 1,-2 0,-1 0,-2 -1,-3z"/>
   <path class="fil3" d="M11636 6480c-27,7 -54,16 -79,26 -5,17 -7,34 -7,52 0,111 90,180 200,146 90,-28 166,-107 191,-193 -81,-56 -188,-64 -305,-31z"/>
   <path class="fil4" d="M11636 6480c117,-33 224,-25 305,31 3,-11 6,-22 7,-33 -84,-55 -193,-60 -312,-27 -23,6 -46,14 -69,22 -4,11 -7,22 -10,33 26,-10 52,-19 79,-26z"/>
   <path class="fil3" d="M11636 6451c119,-33 228,-28 312,27 2,-9 2,-19 2,-28 0,-112 -89,-181 -200,-146 -81,25 -152,93 -183,169 23,-8 46,-15 69,-22z"/>
   <path class="fil5" d="M11647 6468c0,-1 0,-3 1,-4 3,-1 7,-2 10,-3 0,-1 0,-3 0,-4 -3,1 -7,2 -10,3 0,-1 0,-2 0,-3 4,-2 8,-3 13,-4 0,-1 0,-2 0,-4 -6,2 -11,3 -17,4 0,7 0,13 -1,20 6,-1 12,-3 18,-4 0,-2 0,-3 0,-4 -4,1 -9,2 -14,3z"/>
   <path class="fil5" d="M11677 6458c-1,-4 -1,-8 -2,-11 0,-1 0,-1 0,-1 -2,1 -4,1 -6,1 0,7 -1,14 -1,20 0,0 0,0 0,0 1,0 2,0 4,0 0,-4 0,-8 1,-12 0,4 1,7 2,11 1,0 2,0 3,-1 2,-4 3,-8 5,-12 -1,4 -1,8 -1,11 0,0 0,1 0,1 1,-1 2,-1 3,-1 1,-7 1,-13 2,-20 0,0 0,0 0,0 -2,0 -3,1 -5,1 -2,4 -3,9 -5,13z"/>
   <path class="fil5" d="M11712 6451c3,0 6,-1 9,-1 0,-1 1,-3 1,-4 -3,0 -6,1 -9,1 0,-1 0,-2 0,-2 4,-1 7,-1 11,-2 0,-1 0,-2 1,-4 -5,1 -10,2 -14,2 0,0 -1,0 -1,0 -1,6 -2,12 -3,18 0,0 0,0 0,0 5,0 10,-1 15,-1 0,0 0,0 0,0 0,-2 0,-3 1,-4 -4,0 -8,1 -11,1 0,-1 0,-3 0,-4z"/>
   <path class="fil5" d="M11887 6468c2,1 3,2 2,4 0,1 -2,1 -4,0 -1,0 -2,-1 -2,-2 0,-1 0,-1 0,-2 0,0 0,0 0,0 -1,-1 -3,-1 -4,-2 0,1 0,1 0,1 -1,1 -1,3 -1,4 1,2 3,4 5,5 2,0 4,1 6,0 2,0 4,-2 5,-4 2,-4 -1,-6 -4,-8 -2,-1 -3,-2 -3,-3 1,-1 1,-1 2,-2 1,0 2,0 2,1 2,0 3,1 2,3 0,1 0,1 0,1 1,0 3,1 4,1 0,0 0,0 0,0 1,-2 1,-3 1,-4 0,-2 -2,-4 -4,-4 0,0 0,0 0,0 -1,-1 -4,-2 -6,-1 -2,0 -4,1 -5,3 -2,4 1,7 4,9z"/>
   <path class="fil5" d="M11856 6467c5,1 10,3 15,4 0,0 0,0 0,0 1,-1 1,-3 2,-4 -4,-1 -8,-2 -12,-4 1,-1 1,-2 2,-4 3,1 6,2 9,3 1,0 1,0 1,0 0,-1 1,-3 2,-4 -4,-1 -7,-2 -10,-3 1,-1 1,-2 2,-3 3,1 7,2 11,3 0,0 0,0 0,0 1,-1 1,-2 2,-4 -5,-1 -10,-3 -14,-4 0,0 -1,0 -1,0 -3,6 -6,13 -9,19 0,0 0,1 0,1z"/>
   <path class="fil5" d="M11914 6482c2,-4 -1,-7 -4,-9 -1,-1 -3,-2 -2,-3 0,-1 1,-1 1,-2 1,0 2,0 3,1 1,1 2,1 2,2 0,1 0,1 -1,2 0,0 0,0 0,0 1,1 3,1 4,2 0,0 0,0 0,0 0,0 0,0 0,0 1,-2 2,-3 1,-5 0,-2 -2,-3 -3,-4 0,0 0,0 0,0 -2,-1 -4,-2 -7,-1 -2,0 -3,1 -4,3 -3,4 0,7 3,9 2,1 3,2 2,4 0,0 0,0 -1,1 -1,0 -2,0 -3,-1 -1,0 -2,-1 -2,-2 0,0 0,-1 0,-2 0,0 0,0 0,0 -1,-1 -2,-2 -4,-2 0,0 0,0 0,0 -1,2 -1,3 -1,4 1,3 3,5 5,5 1,1 4,2 6,1 2,0 3,-1 5,-3z"/>
   <path class="fil5" d="M11575 6484c0,-1 0,-3 1,-4 1,-1 2,-2 3,-2 4,-1 5,2 5,4 0,2 0,3 -1,4 -1,2 -2,2 -4,3 -3,1 -4,-2 -4,-5zm5 9l0 0c0,0 0,0 1,0 5,-2 8,-8 7,-13 0,-5 -4,-8 -9,-6 0,0 0,0 -1,0 -2,1 -4,2 -6,5 -1,2 -2,5 -1,7 0,5 4,8 9,7z"/>
   <path class="fil5" d="M11933 6485c-1,3 -3,5 -5,6 -1,0 -2,0 -3,-1 -2,0 -2,-2 -1,-5 0,-2 3,-5 5,-5 1,-1 2,-1 2,0 2,1 3,2 2,5zm4 -5c-1,-2 -2,-4 -4,-5 -1,0 -3,0 -4,0 -3,1 -7,4 -9,8 -1,2 -1,5 0,7 0,3 2,4 4,5 1,0 2,0 4,0 3,-1 6,-4 8,-8 1,-2 2,-5 1,-7z"/>
   <path class="fil5" d="M11629 6462c2,-1 3,1 4,2 0,2 0,2 0,3 0,0 0,0 0,0 0,2 -1,3 -2,4 -1,2 -2,2 -4,3 -1,0 -3,1 -4,1 0,-2 0,-9 0,-12 4,-1 4,-1 6,-1zm8 4c0,-1 0,-1 0,-1 0,-1 0,-3 -2,-5 -2,-3 -6,-2 -6,-2 -3,1 -7,2 -10,3 0,6 0,12 0,19 0,0 0,0 0,0 1,0 1,0 1,0 0,0 7,-2 9,-3 3,-1 5,-3 6,-5 2,-2 2,-5 2,-6z"/>
   <path class="fil5" d="M11603 6470c0,-1 1,-1 1,-1 1,0 2,0 2,0 0,0 0,0 1,0 0,0 1,0 1,1 0,1 -1,2 -1,2 -1,1 -2,1 -3,2 -2,0 -4,1 -5,1 -1,-1 -1,-3 -1,-4 1,0 4,-1 5,-1zm7 5c0,-1 1,-3 2,-5 0,-3 -1,-4 -2,-5 0,0 0,0 0,0 -1,0 -2,-1 -4,-1 0,0 0,0 0,0 -2,1 -11,4 -12,4 0,0 0,0 0,0 1,7 1,13 1,20 2,-1 3,-1 4,-2 0,-2 0,-4 0,-7 2,0 5,-1 7,-2 0,1 2,3 2,4 0,1 0,2 0,2 0,0 0,0 0,1 1,-1 3,-1 4,-1 0,-1 0,-1 0,-1 0,0 0,-3 -1,-5 -1,-1 -1,-2 -1,-2z"/>
   <path class="fil5" d="M11797 6448c0,-3 2,-6 5,-7 0,0 1,0 1,0 3,0 3,2 3,4 -1,3 -2,6 -5,7 -1,0 -1,0 -2,0 -2,0 -3,-2 -2,-4zm2 9c1,0 1,0 2,-1 4,-1 8,-5 9,-10 1,-6 -2,-10 -7,-10 0,0 -1,0 -1,1 -5,1 -8,5 -9,10 -1,3 -1,5 1,7 1,2 3,3 5,3z"/>
   <path class="fil5" d="M11773 6440c1,0 4,0 5,0 0,0 1,0 1,0 0,0 1,0 1,0 0,0 1,0 2,0 0,0 0,1 0,2 -1,1 -1,2 -2,2 0,0 0,0 0,0 -1,0 -2,0 -2,0 -2,0 -4,0 -6,0 0,0 1,-3 1,-4zm9 7c1,0 2,-2 3,-4 2,-3 1,-5 1,-5 0,0 0,0 -1,0 0,-1 -1,-2 -3,-3 -2,0 -11,1 -11,1 0,0 0,0 0,0 -2,6 -4,13 -6,20 0,0 0,0 0,0 2,0 3,0 4,0 1,-2 2,-5 2,-7 2,0 5,0 7,0 0,0 1,3 0,5 0,1 0,2 0,2 0,0 0,0 0,0 1,0 2,0 3,0 1,0 1,0 1,0 0,0 1,-4 1,-6 -1,-2 -1,-2 -1,-3z"/>
   <path class="fil5" d="M11849 6447c0,0 1,0 1,0 1,0 2,1 2,1 0,0 0,0 1,1 0,0 0,0 -1,1 0,1 -1,2 -1,2 0,0 0,0 0,0 -1,0 -3,0 -3,0 -2,-1 -3,-1 -5,-1 1,-2 1,-3 2,-5 1,1 3,1 4,1zm-1 14c-1,2 -1,3 -1,3 0,0 0,0 -1,0 2,0 3,0 4,1 0,0 0,0 0,-1 0,0 2,-3 2,-5 0,-2 0,-3 0,-3 0,-1 2,-2 4,-4 1,-2 1,-5 1,-6 0,0 0,0 0,0 -1,-1 -1,-2 -3,-3 -2,0 -11,-1 -11,-1 0,0 0,0 0,0 -3,6 -5,13 -8,19 0,1 0,1 0,1 1,0 2,0 4,0 1,-2 1,-4 2,-7 3,0 5,1 7,1 0,1 0,4 0,5z"/>
   <path class="fil5" d="M11750 6440c1,0 3,0 4,0 1,0 1,0 1,0 1,0 2,0 2,0 0,0 1,0 1,1 0,0 0,0 0,1 0,1 -1,2 -1,2 0,0 -1,0 -1,0 -1,1 -2,0 -2,1 -2,0 -3,0 -5,0 0,-1 0,-3 1,-5zm12 -2c-1,-1 -2,-2 -3,-2 -2,0 -12,0 -12,0 0,0 0,0 0,0 -2,7 -3,14 -5,21 1,0 3,0 4,-1 1,-2 1,-4 2,-7 2,0 4,0 7,0 0,0 1,0 1,-1 1,0 2,0 2,0 0,-1 3,-2 4,-5 1,-3 0,-5 0,-5 0,0 0,0 0,0z"/>
   <path class="fil5" d="M11825 6458c0,0 0,1 -1,2 0,0 0,0 0,0 1,0 2,0 3,0 1,-2 2,-4 3,-7 0,0 1,1 1,1 0,-2 1,-3 1,-4 0,0 0,0 0,0 0,0 0,0 0,0 -1,0 -1,0 -1,0 0,0 0,0 -1,0 0,0 0,0 -1,0 0,0 0,0 -1,0 -1,-1 -2,-1 -3,-1 0,1 -1,2 -1,3 0,1 1,1 2,1 -1,1 -2,1 -3,2 -1,0 -2,0 -3,0 -2,-1 -2,-3 -1,-5 0,-3 3,-6 5,-6 1,-1 2,-1 2,0 2,0 2,1 2,2 0,0 0,0 0,0 0,0 0,1 0,1 1,0 1,0 2,0 0,0 1,0 1,0 0,0 1,0 1,0 0,0 0,0 0,0 1,-4 -1,-7 -4,-8 -1,0 -3,0 -4,0 -3,1 -7,4 -9,8 -2,6 -1,11 4,12 1,0 2,0 4,0 0,0 1,-1 2,-1z"/>
   <path class="fil4" d="M11808 6419c2,-2 3,-3 5,-5 1,1 3,1 5,2 -1,-2 -1,-3 -2,-5 1,-2 3,-3 5,-5 -2,1 -4,1 -6,2 -1,-2 -1,-3 -2,-5 -1,2 -1,4 -2,6 -2,1 -4,1 -6,2 2,0 3,1 5,2 -1,2 -1,4 -2,6z"/>
   <path class="fil4" d="M11592 6509c-2,1 -4,1 -7,2 0,-2 -1,-4 -2,-6 -1,2 -1,5 -2,7 -2,0 -5,1 -7,2 2,0 4,1 6,2 -1,3 -2,5 -2,7 1,-1 3,-3 5,-5 2,1 4,2 6,3 -1,-2 -2,-4 -2,-6 1,-2 3,-4 5,-6z"/>
   <path class="fil4" d="M11807 6482c-1,-1 -1,-3 -2,-4 0,2 -1,3 -1,5 -2,1 -4,1 -5,2 1,0 2,1 4,1 -1,2 -1,4 -2,5 1,-1 3,-2 4,-4 1,1 3,1 4,2 0,-1 -1,-3 -1,-4 1,-2 2,-3 3,-4 -1,0 -3,1 -4,1z"/>
   <path class="fil4" d="M11625 6567c0,-1 -1,-2 -1,-3 0,1 -1,2 -1,4 -1,0 -2,0 -3,0 1,1 2,1 2,2 0,1 0,2 -1,3 1,-1 2,-2 3,-3 1,1 2,1 3,2 -1,-1 -1,-2 -1,-3 1,-1 1,-2 2,-3 -1,0 -2,1 -3,1z"/>
   <path class="fil4" d="M11603 6591c-1,-2 -1,-4 -2,-6 0,1 0,1 0,1l0 0c0,0 0,0 0,0 -1,2 -2,4 -2,6 -3,0 -5,1 -7,1 2,1 4,2 5,3 0,3 -1,5 -2,7 2,-2 4,-3 6,-5 2,1 4,2 5,2 0,-2 -1,-4 -2,-6 2,-1 4,-3 6,-5 -2,1 -5,1 -7,2z"/>
   <path class="fil4" d="M11582 6614c-1,-1 -1,-3 -2,-5 0,2 -1,4 -2,6 -2,0 -4,1 -5,1 1,1 3,2 4,3 0,2 -1,4 -2,6 2,-2 4,-3 5,-5 2,1 3,2 5,3 -1,-2 -1,-4 -2,-6 2,-1 3,-3 5,-4 -2,0 -4,1 -6,1z"/>
   <path class="fil4" d="M11672 6540c0,-2 -1,-3 -2,-5 0,2 -1,4 -1,6 -2,1 -4,1 -6,2 1,0 3,1 5,2 -1,2 -2,4 -2,6 1,-2 3,-4 4,-5 2,1 3,1 5,2 -1,-2 -1,-3 -2,-5 2,-2 3,-3 5,-5 -2,1 -4,1 -6,2z"/>
   <path class="fil4" d="M11648 6603c0,-2 -1,-3 -1,-5 -1,2 -1,4 -2,6 -2,0 -3,0 -5,1 1,1 3,1 4,2 0,2 -1,4 -2,5 2,-1 3,-2 5,-4 1,1 3,1 4,2 0,-1 -1,-3 -2,-5 2,-1 3,-2 5,-4 -2,1 -4,1 -6,2z"/>
   <path class="fil4" d="M11642 6629c0,-1 -1,-3 -1,-4 -1,1 -1,3 -2,5 -1,0 -3,1 -5,1 2,1 3,1 4,2 0,2 -1,3 -1,5 1,-1 2,-2 4,-4 1,1 2,1 4,2 -1,-1 -1,-3 -2,-4 1,-2 3,-3 4,-4 -2,0 -3,1 -5,1z"/>
   <path class="fil4" d="M11672 6637c0,-2 -1,-4 -2,-6 -1,2 -1,4 -2,7 -2,0 -5,1 -7,2 2,0 4,1 6,2 -1,3 -2,5 -2,7 1,-2 3,-3 5,-5 2,0 4,1 6,2 -1,-2 -2,-4 -2,-6 1,-2 3,-4 5,-5 -2,0 -4,1 -7,2z"/>
   <path class="fil4" d="M11750 6521c0,2 -1,4 -2,6 -2,0 -3,1 -5,2 1,0 3,1 4,2 0,2 -1,4 -1,6 1,-2 3,-4 4,-5 2,1 3,1 5,2 -1,-2 -1,-3 -2,-5 2,-2 3,-3 5,-5 -2,1 -4,1 -6,2 -1,-2 -1,-4 -2,-5z"/>
   <path class="fil4" d="M11736 6548c-1,1 -3,1 -4,2 -1,-1 -1,-3 -2,-4 0,1 -1,3 -1,5 -2,0 -4,1 -5,1 1,1 2,1 4,2 -1,2 -1,3 -2,5 1,-1 3,-3 4,-4 1,1 3,1 4,2 0,-2 -1,-3 -1,-4 1,-2 2,-3 3,-5z"/>
   <path class="fil4" d="M11740 6568c1,0 2,1 3,1 -1,-1 -1,-2 -1,-3 1,-1 1,-1 2,-2 -1,0 -2,0 -3,1 0,-1 -1,-2 -1,-3 0,1 -1,2 -1,3 -1,1 -2,1 -3,1 1,1 2,1 2,1 0,2 0,3 -1,4 1,-1 2,-2 3,-3z"/>
   <path class="fil4" d="M11775 6540c0,-2 -1,-3 -2,-5 0,2 -1,4 -1,6 -2,1 -4,1 -6,2 1,1 3,1 4,2 0,2 -1,4 -1,6 1,-2 3,-3 4,-5 2,1 4,2 5,2 -1,-2 -1,-3 -2,-5 2,-1 3,-3 5,-5 -2,1 -4,1 -6,2z"/>
   <path class="fil4" d="M11746 6586c0,2 -1,5 -2,7 -2,1 -4,1 -7,2 2,1 4,2 6,3 -1,2 -1,4 -2,7 2,-2 4,-4 5,-6 2,1 4,2 6,2 -1,-2 -1,-4 -2,-6 2,-1 4,-3 5,-5 -2,0 -4,1 -6,2 -1,-2 -2,-4 -3,-6z"/>
   <path class="fil4" d="M11751 6666c0,0 -1,-1 -1,-2 0,1 0,2 -1,3 -1,0 -1,0 -2,1 0,0 1,0 2,0 0,1 -1,2 -1,3 1,-1 1,-1 2,-2 1,0 2,1 2,1 0,-1 0,-2 -1,-2 1,-1 2,-2 3,-3 -1,1 -2,1 -3,1z"/>
   <path class="fil4" d="M11792 6601c-1,-1 -1,-3 -2,-4 0,2 -1,3 -1,5 -2,1 -3,1 -5,2 1,0 3,1 4,1 -1,2 -1,4 -2,5 2,-1 3,-2 4,-4 2,1 3,1 4,2 0,-1 -1,-3 -1,-4 1,-2 3,-3 4,-4 -2,0 -3,1 -5,1z"/>
   <path class="fil4" d="M11808 6618c-1,-1 -1,-3 -2,-5 0,2 -1,4 -2,6 -2,1 -3,2 -5,2 1,1 3,2 4,2 0,2 -1,4 -2,6 2,-1 4,-3 5,-5 2,1 3,2 5,2 -1,-1 -1,-3 -2,-5 2,-1 3,-3 5,-4 -2,0 -4,1 -6,1z"/>
   <path class="fil4" d="M11829 6591c-1,-1 -1,-3 -2,-4 0,1 -1,3 -1,5 -2,0 -3,1 -5,1 1,1 3,2 4,2 -1,2 -1,4 -2,5 2,-1 3,-2 4,-4 2,1 3,1 4,2 0,-1 -1,-3 -1,-4 1,-2 2,-3 4,-4 -2,0 -3,1 -5,1z"/>
   <path class="fil4" d="M11851 6586c0,-2 -1,-3 -1,-5 -1,2 -1,4 -2,6 -2,0 -3,1 -5,1 1,1 3,1 4,2 0,1 -1,3 -1,5 1,-1 2,-3 4,-4 1,0 2,1 4,2 -1,-2 -1,-3 -2,-5 1,-1 3,-2 4,-4 -2,1 -3,1 -5,2z"/>
   <path class="fil4" d="M11850 6599c-1,2 -1,4 -2,6 -2,1 -4,2 -6,2 2,1 4,2 5,2 0,2 -1,4 -2,6 2,-1 4,-3 5,-4 2,0 3,1 5,2 -1,-2 -1,-4 -2,-5 2,-2 3,-4 5,-5 -2,0 -4,1 -6,1 -1,-1 -1,-3 -2,-5z"/>
   <path class="fil4" d="M11852 6625c0,-1 -1,-3 -1,-4 -1,2 -1,3 -2,5 -2,1 -3,1 -5,2 1,0 3,1 4,1 0,2 -1,4 -1,5 1,-1 2,-2 4,-4 1,1 2,2 4,2 -1,-1 -1,-3 -2,-4 1,-1 3,-3 4,-4 -2,0 -3,1 -5,1z"/>
   <path class="fil4" d="M11872 6584c-1,-2 -1,-3 -2,-5 0,2 -1,4 -1,5 -2,1 -3,1 -5,2 1,0 3,1 4,2 -1,1 -1,3 -2,5 2,-2 3,-3 4,-4 2,0 3,1 4,2 0,-2 -1,-3 -1,-5 1,-1 3,-2 4,-4 -2,1 -3,1 -5,2z"/>
   <path class="fil4" d="M11888 6569c0,-2 -1,-3 -2,-5 0,2 -1,4 -1,6 -2,0 -4,1 -5,1 0,0 0,0 0,0 0,1 0,1 -1,1 2,0 3,1 5,2 -1,2 -2,4 -2,6 1,-2 3,-3 4,-5 2,1 4,2 5,2 0,-1 -1,-3 -2,-5 2,-1 4,-3 5,-4 -2,0 -4,1 -6,1z"/>
   <path class="fil4" d="M11897 6548c-1,-2 -2,-4 -2,-6 -1,2 -2,4 -2,6 -2,1 -4,1 -6,2 2,1 3,1 5,2 -1,2 -1,4 -2,6 2,-1 3,-3 5,-4 1,0 3,1 4,2 0,-2 -1,-4 -1,-5 1,-2 3,-3 4,-5 -2,1 -4,1 -5,2z"/>
   <path class="fil4" d="M11883 6539c2,1 3,2 5,3 0,-2 -1,-4 -2,-6 2,-2 4,-4 6,-6 -3,1 -5,1 -7,2 -1,-2 -2,-4 -2,-6 -1,2 -2,5 -2,7 -3,1 -5,1 -7,2 2,1 3,2 5,2 0,3 -1,5 -2,8 2,-2 4,-4 6,-6z"/>
   <path class="fil4" d="M11916 6527c0,-1 -1,-3 -1,-4 -1,2 -1,3 -2,5 -2,0 -3,1 -5,1 1,1 3,1 4,2 0,2 -1,3 -1,5 1,-1 2,-2 4,-4 1,1 2,2 4,2 -1,-1 -1,-3 -2,-4 1,-1 3,-3 4,-4 -2,1 -3,1 -5,1z"/>
  </g>
 </g>
</svg>
