<?xml version="1.0" encoding="UTF-8"?>
<!DOCTYPE svg PUBLIC "-//W3C//DTD SVG 1.1//EN" "http://www.w3.org/Graphics/SVG/1.1/DTD/svg11.dtd">
<!-- Creator: CorelDRAW X7 -->
<svg xmlns="http://www.w3.org/2000/svg" xml:space="preserve" width="210mm" height="297mm" version="1.1" style="shape-rendering:geometricPrecision; text-rendering:geometricPrecision; image-rendering:optimizeQuality; fill-rule:evenodd; clip-rule:evenodd"
viewBox="0 0 21000 29700"
 xmlns:xlink="http://www.w3.org/1999/xlink">
 <defs>
  <style type="text/css">
   <![CDATA[
    .fil2 {fill:#FEFEFE}
    .fil0 {fill:#CCCDCC}
    .fil1 {fill:#B23B49}
    .fil3 {fill:#4E4D7C}
   ]]>
  </style>
 </defs>
 <g id="Layer_x0020_1">
  <metadata id="CorelCorpID_0Corel-Layer"/>
  <g id="_3094415109040">
   <path class="fil0" d="M11107 9819c-407,-246 -814,246 -1220,0 0,-274 0,-547 0,-820 406,246 813,-246 1220,0 0,273 0,546 0,820z"/>
   <path class="fil1" d="M11097 9803c-400,-230 -800,242 -1200,12 0,-267 0,-534 0,-800 400,230 800,-242 1200,-12 0,267 0,533 0,800z"/>
   <path class="fil2" d="M11097 9126c-400,-230 -800,242 -1200,12 0,-21 0,-41 0,-62 400,230 800,-242 1200,-12 0,21 0,41 0,62z"/>
   <path class="fil2" d="M11097 9249c-400,-230 -800,242 -1200,12 0,-21 0,-41 0,-62 400,230 800,-242 1200,-12 0,21 0,41 0,62z"/>
   <path class="fil2" d="M11097 9372c-400,-230 -800,242 -1200,12 0,-21 0,-41 0,-62 400,230 800,-242 1200,-12 0,21 0,41 0,62z"/>
   <path class="fil2" d="M11097 9495c-400,-230 -800,242 -1200,12 0,-21 0,-41 0,-62 400,230 800,-242 1200,-12 0,21 0,41 0,62z"/>
   <path class="fil2" d="M11097 9618c-400,-230 -800,242 -1200,12 0,-21 0,-41 0,-62 400,230 800,-242 1200,-12 0,21 0,41 0,62z"/>
   <path class="fil2" d="M11097 9741c-400,-230 -800,242 -1200,12 0,-21 0,-41 0,-62 400,230 800,-242 1200,-12 0,21 0,41 0,62z"/>
   <path class="fil3" d="M10497 9009c-200,60 -400,121 -600,6 0,143 0,287 0,430 200,115 400,55 600,-6 0,-143 0,-287 0,-430z"/>
   <path class="fil2" d="M9936 9087c-2,5 -4,10 -5,14 0,0 0,1 0,1 0,0 0,0 0,0 4,-1 9,-3 14,-4 5,5 9,11 14,16 0,0 0,0 0,0l0 0c0,0 0,0 0,0 0,0 0,0 0,0 -2,-6 -3,-13 -5,-19 5,-1 9,-3 14,-4 0,0 0,0 0,-1 0,0 0,0 0,0 -6,-2 -12,-4 -18,-7 -1,-6 -3,-12 -5,-19 0,0 0,0 0,0 -2,5 -4,10 -6,14 -5,-2 -11,-5 -17,-8 0,0 0,0 0,0 0,0 0,0 0,0 4,6 9,12 14,17z"/>
   <path class="fil2" d="M10035 9121c-2,5 -4,10 -6,15 0,0 0,0 0,0 0,0 0,0 0,0 5,-2 10,-5 15,-7 4,4 9,9 14,13 0,0 0,0 0,0l0 0c0,0 0,0 0,0 0,0 0,0 0,0 -2,-6 -4,-12 -5,-18 4,-2 9,-5 14,-8 0,0 0,0 0,0 0,0 0,0 0,0 -6,-1 -12,-2 -18,-3 -2,-6 -3,-12 -5,-18 0,0 -1,0 -1,0 -1,6 -3,11 -5,16 -6,-1 -12,-3 -17,-4 0,0 0,0 -1,0 0,0 0,0 1,0 4,5 9,9 14,14z"/>
   <path class="fil2" d="M10133 9132c-1,5 -3,11 -5,16 0,0 0,0 0,1 0,0 0,0 0,0 5,-4 10,-7 14,-10 5,3 10,6 14,10 0,0 0,0 0,0l1 0c0,0 0,0 0,-1 0,0 0,0 0,0 -2,-5 -4,-11 -6,-16 5,-3 10,-7 14,-11 0,0 0,0 0,0 0,0 0,0 0,0 -6,0 -11,0 -17,0 -2,-5 -4,-11 -6,-16 0,0 0,0 0,0 -2,5 -3,11 -5,16 -6,0 -12,0 -18,0 0,0 0,0 0,0 0,0 0,0 0,0 5,4 10,7 14,11z"/>
   <path class="fil2" d="M10232 9126c-2,6 -4,11 -5,17 0,0 0,0 0,0 0,0 0,0 0,0 5,-4 9,-8 14,-12 5,3 9,6 14,8 0,0 0,0 0,0l0 0c0,0 0,0 0,0 0,0 0,0 0,0 -1,-5 -3,-10 -5,-16 5,-4 9,-8 14,-12 0,0 0,0 0,0 0,0 0,0 0,0 -6,1 -12,2 -17,2 -2,-5 -4,-10 -6,-15 0,-1 0,0 0,0 -2,5 -4,11 -6,17 -5,1 -11,1 -17,2 0,0 0,0 0,0 0,0 0,0 0,0 5,3 9,6 14,9z"/>
   <path class="fil2" d="M10331 9107c-2,6 -4,12 -6,18 0,0 0,0 0,0 0,0 1,0 1,0 4,-4 9,-9 14,-13 4,2 9,4 14,7 0,0 0,0 0,0l0 0c0,0 0,-1 0,-1 0,0 0,0 0,0 -2,-5 -4,-10 -5,-15 4,-4 9,-9 14,-14 0,0 0,0 0,0 0,0 0,0 0,0 -6,1 -12,3 -18,4 -2,-5 -3,-10 -5,-15 0,0 0,0 0,0 -2,6 -4,12 -6,18 -6,1 -11,3 -17,4 0,0 0,0 0,0 0,0 0,0 0,0 4,3 9,5 14,7z"/>
   <path class="fil2" d="M10429 9081c-1,6 -3,12 -5,18 0,0 0,0 0,0 0,0 0,0 0,0 5,-4 10,-9 14,-14 5,2 10,4 15,6 0,0 0,0 0,0l0 0c0,0 0,0 0,0 0,0 0,0 0,0 -2,-5 -4,-10 -6,-15 5,-5 10,-10 14,-15 1,0 1,0 1,0 0,0 -1,0 -1,0 -5,2 -11,3 -17,5 -2,-5 -4,-10 -5,-15 0,0 -1,0 -1,0 -2,6 -3,12 -5,19 -6,1 -12,3 -18,5 0,0 0,0 0,0 0,0 0,0 0,0 5,2 10,4 14,6z"/>
   <path class="fil2" d="M9980 9164c0,0 0,0 0,0 0,0 0,0 0,0 5,-1 10,-3 14,-5 5,5 10,9 14,14 0,0 0,0 0,0l0 0c1,0 1,0 1,0 0,0 0,0 0,0 -2,-6 -4,-12 -6,-18 5,-2 10,-4 14,-6 0,-1 0,-1 0,-1 0,0 0,0 0,0 -6,-1 -11,-3 -17,-5 -2,-6 -4,-12 -6,-18 0,0 0,0 0,0 -2,5 -3,10 -5,15 -6,-2 -12,-4 -18,-6 0,0 0,0 0,0 0,0 0,0 0,0 5,5 10,10 14,15 -2,5 -3,10 -5,15z"/>
   <path class="fil2" d="M10079 9187c0,0 0,0 0,0 0,0 0,0 0,0 5,-3 9,-6 14,-9 5,4 9,8 14,12 0,0 0,0 0,0l0 0c0,0 0,0 0,0 0,0 0,0 0,0 -2,-6 -3,-12 -5,-17 5,-3 9,-6 14,-10 0,0 0,0 0,0 0,0 0,0 0,0 -6,0 -12,-1 -17,-1 -2,-6 -4,-11 -6,-17 0,0 0,0 0,0 -2,5 -4,10 -6,16 -5,-1 -11,-1 -17,-2 0,0 0,0 0,0 0,0 0,0 0,0 5,4 9,8 14,12 -2,5 -4,11 -5,16z"/>
   <path class="fil2" d="M10177 9190c0,0 0,0 0,0 0,0 1,0 1,0 4,-4 9,-7 14,-11 4,3 9,6 14,9 0,0 0,0 0,0l0 0c0,0 0,0 0,0 0,0 0,0 0,0 -2,-6 -4,-11 -5,-16 4,-4 9,-8 14,-12 0,0 0,0 0,0 0,0 0,0 0,0 -6,0 -12,1 -18,1 -2,-5 -3,-10 -5,-16 0,0 0,0 -1,0 -1,6 -3,12 -5,17 -6,1 -12,1 -17,1 0,0 0,0 0,0 0,0 0,1 0,1 4,3 9,6 14,9 -2,6 -4,11 -6,17z"/>
   <path class="fil2" d="M10276 9178c0,0 0,0 0,0 0,0 0,0 0,0 5,-4 10,-9 14,-13 5,3 10,5 14,7 0,0 1,0 1,0l0 0c0,0 0,0 0,0 0,0 0,0 0,0 -2,-5 -4,-10 -6,-15 5,-5 10,-9 14,-13 0,-1 0,-1 0,-1 0,0 0,0 0,0 -5,1 -11,3 -17,4 -2,-5 -4,-10 -5,-16 -1,0 -1,0 -1,0 -2,6 -3,12 -5,18 -6,1 -12,2 -18,3 0,0 0,0 0,0 0,0 0,1 0,1 5,2 10,5 14,7 -1,6 -3,12 -5,18z"/>
   <path class="fil2" d="M10375 9155c0,0 0,0 0,0 0,0 0,0 0,0 5,-4 9,-9 14,-14 5,2 9,5 14,7 0,0 0,0 0,0l0 0c0,0 0,-1 0,-1 0,0 0,0 0,0 -1,-5 -3,-10 -5,-15 5,-4 9,-9 14,-14 0,0 0,0 0,0 0,0 0,0 0,0 -6,1 -12,3 -17,5 -2,-5 -4,-10 -6,-15 0,0 0,0 0,0 -2,6 -4,12 -5,18 -6,1 -12,3 -18,4 0,0 0,0 0,1 0,0 0,0 0,0 5,2 9,4 14,6 -2,6 -4,12 -5,18z"/>
   <path class="fil2" d="M9931 9186c0,0 0,0 0,0 0,0 0,0 0,0 4,-1 9,-2 14,-3 5,5 9,10 14,16 0,0 0,0 0,0l0 0c0,0 0,0 0,0 0,0 0,0 0,0 -2,-7 -3,-13 -5,-19 5,-2 9,-3 14,-5 0,0 0,0 0,0 0,0 0,0 0,0 -6,-2 -12,-5 -18,-7 -1,-6 -3,-13 -5,-19 0,0 0,0 0,0 -2,5 -4,9 -6,14 -5,-3 -11,-5 -17,-8 0,0 0,0 0,0 0,0 0,0 0,0 4,6 9,11 14,17 -2,5 -4,9 -5,14z"/>
   <path class="fil2" d="M10029 9221c0,0 0,0 0,0 0,0 0,0 0,0 5,-2 10,-5 15,-7 4,4 9,8 14,12 0,0 0,0 0,0l0 0c0,0 0,0 0,0 0,0 0,0 0,0 -2,-6 -4,-11 -5,-17 4,-3 9,-5 14,-8 0,0 0,0 0,0 0,0 0,0 0,-1 -6,0 -12,-1 -18,-2 -2,-6 -3,-12 -5,-18 0,0 -1,0 -1,0 -1,5 -3,10 -5,15 -6,-1 -12,-2 -17,-4 0,0 0,0 -1,0 0,1 0,1 1,1 4,4 9,9 14,13 -2,5 -4,10 -6,16z"/>
   <path class="fil2" d="M10128 9233c0,0 0,0 0,0 0,0 0,0 0,0 5,-3 10,-6 14,-10 5,4 10,7 14,10 0,0 0,0 0,0l1 0c0,0 0,0 0,0 0,0 0,0 0,0 -2,-5 -4,-11 -6,-16 5,-4 10,-7 14,-11 0,0 0,0 0,0 0,0 0,0 0,0 -6,0 -11,0 -17,0 -2,-5 -4,-11 -6,-17 0,0 0,0 0,0 -2,6 -3,12 -5,17 -6,0 -12,0 -18,0 0,0 0,0 0,0 0,0 0,0 0,0 5,3 10,7 14,11 -1,5 -3,10 -5,16z"/>
   <path class="fil2" d="M10227 9228c0,0 0,0 0,0 0,0 0,0 0,0 5,-4 9,-8 14,-12 5,3 9,5 14,8 0,0 0,0 0,0l0 0c0,0 0,0 0,0 0,0 0,0 0,0 -1,-6 -3,-11 -5,-16 5,-4 9,-8 14,-12 0,-1 0,-1 0,-1 0,0 0,0 0,0 -6,1 -12,2 -17,3 -2,-5 -4,-11 -6,-16 0,0 0,0 0,0 -2,6 -4,12 -6,18 -5,0 -11,1 -17,2 0,0 0,0 0,0 0,0 0,0 0,0 5,3 9,6 14,9 -2,5 -4,11 -5,17z"/>
   <path class="fil2" d="M10325 9210c0,0 0,0 0,0 0,0 1,0 1,0 4,-4 9,-9 14,-14 4,3 9,5 14,7 0,0 0,0 0,0l0 0c0,0 0,0 0,0 0,0 0,0 0,0 -2,-5 -4,-10 -5,-15 4,-5 9,-9 14,-14 0,0 0,0 0,0 0,0 0,0 0,0 -6,1 -12,3 -18,4 -2,-5 -3,-10 -5,-15 0,0 0,0 0,0 -2,6 -4,12 -6,18 -6,1 -11,2 -17,4 0,0 0,0 0,0 0,0 0,0 0,0 4,2 9,5 14,7 -2,6 -4,12 -6,18z"/>
   <path class="fil2" d="M10424 9184c0,0 0,0 0,0 0,0 0,0 0,0 5,-5 10,-10 14,-14 5,2 10,4 15,6 0,0 0,0 0,0l0 0c0,0 0,0 0,-1 0,0 0,0 0,0 -2,-5 -4,-10 -6,-15 5,-4 10,-9 14,-14 1,0 1,0 1,0 0,0 -1,0 -1,0 -5,1 -11,3 -17,5 -2,-5 -4,-10 -5,-15 0,0 -1,0 -1,0 -2,6 -3,12 -5,18 -6,2 -12,3 -18,5 0,0 0,0 0,0 0,0 0,0 0,1 5,2 10,4 14,6 -1,6 -3,12 -5,18z"/>
   <path class="fil2" d="M9996 9210c0,0 -1,0 -1,0 -2,5 -3,10 -5,15 -6,-2 -12,-4 -17,-6 -1,0 -1,0 -1,0 0,0 0,0 0,0 5,5 10,11 14,16 -1,4 -3,9 -5,14 0,0 0,0 0,0 0,0 0,0 0,0 5,-1 10,-3 14,-5 5,5 10,10 15,14 0,0 0,0 0,0l0 0c0,0 0,0 0,0 0,0 0,0 0,0 -2,-6 -4,-12 -6,-18 5,-2 10,-4 15,-6 0,0 0,-1 0,-1 0,0 -1,0 -1,0 -5,-1 -11,-3 -17,-4 -2,-7 -4,-13 -5,-19z"/>
   <path class="fil2" d="M10094 9230c0,0 0,0 0,0 -2,5 -4,10 -5,16 -6,-1 -12,-2 -18,-2 0,0 0,0 0,0 0,0 0,0 0,0 5,4 10,8 14,12 -2,5 -3,11 -5,16 0,0 0,0 0,0 0,0 0,0 0,0 0,0 0,0 0,0 5,-3 9,-6 14,-9 5,4 10,8 14,12 0,0 0,0 0,0 0,0 1,0 1,0 0,-1 0,-1 0,-1 -2,-5 -4,-11 -6,-16 5,-3 10,-7 14,-10 0,0 0,0 0,0 0,0 0,0 0,0 -6,0 -11,-1 -17,-1 -2,-6 -4,-12 -6,-17z"/>
   <path class="fil2" d="M10184 9258c-2,5 -4,11 -5,17 0,0 0,0 0,0 0,0 0,0 0,0 4,-4 9,-8 14,-11 5,3 9,6 14,9 0,0 0,0 0,0 0,0 0,0 0,0 0,-1 0,-1 0,-1 -2,-5 -3,-10 -5,-16 5,-3 9,-7 14,-11 0,0 0,0 0,0 0,0 0,-1 0,-1 -6,1 -12,2 -18,2 -1,-5 -3,-11 -5,-16 0,0 0,0 0,0 -2,6 -4,11 -6,17 -5,0 -11,1 -17,1 0,0 0,0 0,0 0,0 0,0 0,0 5,4 9,7 14,10z"/>
   <path class="fil2" d="M10283 9245c-2,6 -4,12 -6,17 0,0 0,1 0,1 0,0 0,0 0,0 5,-5 10,-9 15,-13 4,2 9,4 14,7 0,0 0,0 0,0l0 0c0,0 0,0 0,0 0,0 0,0 0,0 -2,-6 -4,-11 -5,-16 4,-4 9,-9 14,-13 0,0 0,0 0,0 0,0 0,0 0,0 -6,1 -12,2 -18,3 -2,-5 -3,-10 -5,-15 0,0 -1,0 -1,0 -1,6 -3,12 -5,18 -6,1 -12,2 -17,3 0,0 0,0 0,0 -1,0 0,0 0,0 4,3 9,5 14,8z"/>
   <path class="fil2" d="M10390 9192c0,0 0,0 0,0 -2,6 -3,12 -5,18 -6,2 -12,3 -18,5 0,0 0,0 0,0 0,0 0,0 0,0 5,2 10,5 14,7 -1,6 -3,12 -5,18 0,0 0,0 0,0 0,0 0,0 0,0 0,0 0,0 0,0 5,-5 10,-10 14,-14 5,2 10,4 14,6 0,0 0,0 0,0 1,0 1,0 1,0 0,0 0,0 0,0 -2,-5 -4,-10 -6,-15 5,-5 10,-10 14,-14 0,-1 0,-1 0,-1 0,0 0,0 0,0 -6,2 -11,4 -17,5 -2,-5 -4,-10 -6,-15z"/>
   <path class="fil2" d="M9947 9234c-1,0 -1,0 -1,0 -2,5 -3,9 -5,14 -6,-3 -12,-5 -18,-8 0,0 0,0 0,0 0,0 0,0 0,0 5,6 10,11 14,17 -1,5 -3,9 -5,14 0,0 0,0 0,0 0,0 0,0 0,0 5,-1 10,-2 14,-3 5,5 10,10 14,16 0,0 0,0 1,0l0 0c0,0 0,0 0,0 0,0 0,0 0,0 -2,-7 -4,-13 -6,-19 5,-2 10,-3 14,-5 0,0 1,0 0,0 0,0 0,0 0,0 -5,-2 -11,-5 -17,-7 -2,-6 -4,-13 -5,-19z"/>
   <path class="fil2" d="M10045 9265c0,0 0,-1 0,0 -2,5 -4,10 -5,15 -6,-1 -12,-2 -18,-4 0,0 0,0 0,0 0,0 0,0 0,0 5,5 9,10 14,14 -2,5 -3,10 -5,15 0,0 0,0 0,0 0,1 0,1 0,1 5,-3 9,-5 14,-8 5,5 9,9 14,13 0,0 0,0 0,0l0 0c0,0 0,0 0,0 0,0 0,0 0,0 -1,-6 -3,-12 -5,-18 5,-2 9,-5 14,-8 0,0 0,0 0,0 0,0 0,0 0,0 -6,-1 -12,-2 -17,-3 -2,-6 -4,-11 -6,-17z"/>
   <path class="fil2" d="M10144 9274c0,0 0,0 0,0 -2,5 -4,11 -6,16 -6,0 -11,0 -17,0 0,0 0,0 0,0 0,0 0,0 0,0 4,4 9,7 14,11 -2,5 -4,11 -6,16 0,0 0,1 1,1 0,0 0,0 0,0 4,-4 9,-7 14,-10 4,3 9,6 14,10 0,0 0,0 0,0l0 0c0,0 0,0 0,-1 0,0 0,0 0,0 -2,-5 -3,-11 -5,-16 4,-3 9,-7 14,-11 0,0 0,0 0,0 0,0 0,0 0,0 -6,0 -12,0 -18,0 -1,-5 -3,-11 -5,-16z"/>
   <path class="fil2" d="M10243 9266c0,0 -1,0 -1,0 -1,6 -3,12 -5,18 -6,1 -12,1 -17,2 0,0 -1,0 -1,0 0,0 0,0 0,0 5,3 10,6 15,9 -2,6 -4,11 -6,17 0,0 0,0 0,0 0,0 0,0 0,0 5,-4 10,-8 15,-12 4,3 9,5 14,8 0,0 0,0 0,0l0 0c0,0 0,0 0,0 0,0 0,0 0,0 -2,-5 -4,-11 -6,-16 5,-4 10,-8 15,-12 0,0 0,0 0,-1 0,0 0,0 -1,0 -5,1 -11,2 -17,3 -2,-5 -4,-10 -5,-16z"/>
   <path class="fil2" d="M10341 9247c0,0 0,0 0,0 -2,6 -4,12 -5,18 -6,1 -12,2 -18,4 0,0 0,0 0,0 0,0 0,0 0,0 5,2 10,5 14,7 -2,6 -3,12 -5,18 0,0 0,0 0,0 0,0 0,0 0,0 5,-4 10,-9 14,-14 5,3 10,5 14,7 0,0 0,0 0,0l0 0c1,0 1,0 1,0 0,0 0,0 0,0 -2,-5 -4,-10 -6,-15 5,-5 10,-9 14,-14 0,0 0,0 0,0 0,0 0,0 0,0 -6,1 -11,3 -17,4 -2,-5 -4,-10 -6,-15z"/>
   <path class="fil2" d="M10440 9220c0,0 0,0 0,0 -2,6 -4,12 -6,18 -5,2 -11,3 -17,5 0,0 0,0 0,0 0,0 0,0 0,0 5,3 9,5 14,7 -2,6 -4,12 -5,18 0,0 0,0 0,0 0,0 0,0 0,0 5,-5 9,-10 14,-14 5,2 9,4 14,6 0,0 0,0 0,0l0 0c0,0 0,-1 0,-1 0,0 0,0 0,0 -2,-5 -3,-10 -5,-15 5,-4 9,-9 14,-14 0,0 0,0 0,0 0,0 0,0 0,0 -6,1 -12,3 -18,5 -1,-5 -3,-10 -5,-15z"/>
   <path class="fil2" d="M9953 9337c-2,-7 -4,-13 -6,-19 0,0 0,-1 0,0 -2,4 -3,9 -5,14 -6,-3 -12,-6 -18,-8 0,-1 0,-1 0,0 0,0 0,0 0,0 5,6 10,11 14,17 -1,4 -3,9 -5,14 0,0 0,0 0,0 0,0 0,0 0,0 0,0 0,0 0,0 5,-1 10,-2 14,-4 5,6 10,11 14,16 0,0 0,0 0,0 0,0 0,0 1,0 0,0 0,0 0,0 0,0 0,0 0,0 -2,-6 -4,-12 -6,-18 5,-2 10,-4 14,-5 0,0 0,0 0,0 0,0 0,-1 0,-1 -6,-2 -11,-4 -17,-6z"/>
   <path class="fil2" d="M10052 9366c-2,-6 -4,-12 -6,-18 0,0 0,0 0,0 -2,5 -4,10 -6,16 -5,-2 -11,-3 -17,-4 0,0 0,0 0,0 0,0 0,0 0,0 5,4 9,9 14,13 -2,6 -4,11 -5,16 0,0 0,0 0,0 0,0 0,0 0,0 5,-2 9,-5 14,-7 5,4 9,8 14,12 0,0 0,0 0,1l0 0c0,0 0,-1 0,-1 0,0 0,0 0,0 -1,-6 -3,-11 -5,-17 5,-3 9,-5 14,-8 0,0 0,0 0,0 0,0 0,0 0,0 -6,-1 -12,-2 -17,-3z"/>
   <path class="fil2" d="M10150 9374c-2,-6 -3,-11 -5,-17 0,0 0,0 0,0 -2,6 -4,11 -6,17 -6,0 -11,0 -17,-1 0,0 0,0 0,0 0,0 0,1 0,1 4,3 9,7 14,10 -2,6 -4,11 -6,17 0,0 0,0 0,0 1,0 1,0 1,0 4,-3 9,-7 14,-10 4,3 9,7 14,10 0,0 0,0 0,0l0 0c0,0 0,0 0,0 0,0 0,0 0,0 -2,-6 -3,-11 -5,-17 4,-3 9,-7 14,-10 0,0 0,-1 0,-1 0,0 0,0 0,0 -6,1 -12,1 -18,1z"/>
   <path class="fil2" d="M10249 9365c-2,-5 -4,-10 -5,-15 0,-1 -1,-1 -1,0 -2,5 -3,11 -5,17 -6,1 -12,1 -18,2 0,0 0,0 0,0 0,0 0,0 0,0 5,3 10,6 14,9 -1,6 -3,11 -5,17 0,0 0,0 0,0 0,0 0,0 0,0 5,-4 10,-8 14,-12 5,3 10,6 15,8 0,0 0,0 0,0l0 0c0,0 0,0 0,0 0,0 0,0 0,0 -2,-5 -4,-11 -6,-16 5,-4 10,-8 14,-12 1,0 1,0 1,0 0,-1 -1,-1 -1,-1 -5,1 -11,2 -17,3z"/>
   <path class="fil2" d="M10348 9345c-2,-5 -4,-10 -6,-15 0,0 0,0 0,0 -2,6 -4,12 -5,18 -6,1 -12,3 -18,4 0,0 0,0 0,0 0,0 0,0 0,0 5,3 9,5 14,7 -2,6 -3,12 -5,18 0,0 0,0 0,0 0,0 0,0 0,0 5,-4 9,-9 14,-13 5,2 10,4 14,6 0,0 0,0 0,0l0 0c0,0 0,0 0,0 0,0 0,0 0,0 -1,-5 -3,-10 -5,-15 5,-5 10,-9 14,-14 0,0 0,0 0,0 0,0 0,0 0,0 -6,1 -12,3 -17,4z"/>
   <path class="fil2" d="M10464 9313c-6,1 -12,3 -18,5 -1,-5 -3,-10 -5,-15 0,0 0,0 0,0 -2,6 -4,12 -6,18 -6,2 -11,3 -17,5 0,0 0,0 0,0 0,0 0,0 0,0 4,3 9,5 14,7 -2,6 -4,12 -5,18 -1,0 0,0 0,0 0,0 0,0 0,0 4,-5 9,-10 14,-15 5,3 9,5 14,7 0,0 0,0 0,0l0 0c0,0 0,-1 0,-1 0,0 0,0 0,0 -2,-5 -3,-10 -5,-15 5,-4 9,-9 14,-14 0,0 0,0 0,0 0,0 0,0 0,0z"/>
   <path class="fil2" d="M9952 9420c-2,-6 -4,-12 -6,-19 0,0 0,0 0,0 -2,5 -4,10 -5,14 -6,-2 -12,-5 -18,-8 0,0 0,0 0,0 0,0 0,0 0,0 5,6 9,12 14,17 -2,5 -3,10 -5,14 0,1 0,1 0,1 0,0 0,0 0,0 5,-1 9,-3 14,-4 5,5 10,11 14,16 0,0 0,0 0,0 0,0 0,0 0,0 0,0 0,0 0,0 0,0 0,0 0,0 -1,-6 -3,-12 -5,-19 5,-1 9,-3 14,-4 0,0 0,-1 0,-1 0,0 0,0 0,0 -6,-2 -12,-4 -17,-7z"/>
   <path class="fil2" d="M10050 9450c-1,-6 -3,-12 -5,-18 0,0 0,0 0,0 -2,5 -4,10 -6,16 -6,-2 -11,-3 -17,-4 0,0 0,0 0,0 0,0 0,0 0,0 4,4 9,9 14,13 -2,6 -4,11 -6,16 0,0 0,0 1,0 0,0 0,0 0,0 4,-2 9,-5 14,-7 5,4 9,8 14,13 0,0 0,0 0,0l0 0c0,0 0,0 0,-1 0,0 0,0 0,0 -2,-5 -3,-11 -5,-17 4,-3 9,-5 14,-8 0,0 0,0 0,0 0,0 0,0 0,0 -6,-1 -12,-2 -18,-3z"/>
   <path class="fil2" d="M10149 9458c-2,-6 -4,-11 -5,-17 0,0 -1,0 -1,0 -1,6 -3,11 -5,17 -6,0 -12,0 -17,0 -1,0 -1,0 -1,0 0,0 0,0 0,0 5,3 10,7 15,11 -2,5 -4,10 -6,16 0,0 0,0 0,0 0,0 0,0 0,0 5,-3 10,-7 15,-10 4,3 9,7 14,10 0,0 0,0 0,0l0 0c0,0 0,0 0,0 0,0 0,0 0,0 -2,-6 -4,-11 -6,-16 5,-4 10,-8 15,-11 0,0 0,0 0,0 0,0 0,0 -1,0 -5,0 -11,0 -17,0z"/>
   <path class="fil2" d="M10248 9450c-2,-6 -4,-11 -6,-16 0,0 0,0 0,0 -2,6 -4,12 -5,17 -6,1 -12,2 -18,3 0,0 0,0 0,0 0,0 0,0 0,0 5,3 10,6 14,8 -2,6 -3,12 -5,18 0,0 0,0 0,0 0,0 0,0 0,0 5,-4 10,-8 14,-12 5,2 10,5 14,8 0,0 0,0 0,0l0 0c1,0 1,0 1,0 0,-1 0,-1 0,-1 -2,-5 -4,-10 -6,-15 5,-4 10,-9 14,-13 0,0 0,0 0,0 0,0 0,0 0,0 -6,1 -11,2 -17,3z"/>
   <path class="fil2" d="M10347 9430c-2,-5 -4,-11 -6,-16 0,0 0,0 0,0 -2,6 -4,12 -6,18 -5,2 -11,3 -17,4 0,0 0,0 0,1 0,0 0,0 0,0 5,2 9,4 14,7 -2,6 -4,12 -5,17 0,1 0,1 0,1 0,0 0,0 0,0 5,-5 9,-9 14,-14 5,2 9,5 14,7 0,0 0,0 0,0l0 0c0,0 0,0 0,0 0,0 0,-1 0,-1 -2,-5 -3,-10 -5,-15 5,-4 9,-9 14,-14 0,0 0,0 0,0 0,0 0,0 0,0 -6,2 -12,3 -17,5z"/>
   <path class="fil2" d="M10445 9402c-2,-5 -3,-10 -5,-15 0,0 -1,0 -1,1 -1,6 -3,12 -5,18 -6,1 -12,3 -17,5 0,0 0,0 0,0 0,0 0,0 0,0 4,2 9,4 14,6 -2,6 -4,12 -6,18 0,0 0,0 0,1 0,0 1,0 1,-1 4,-4 9,-9 14,-14 4,2 9,4 14,6 0,0 0,0 0,0l0 0c0,0 0,0 0,0 0,0 0,0 0,0 -2,-5 -4,-10 -5,-15 4,-5 9,-10 14,-15 0,0 0,0 0,0 0,0 0,0 0,0 -6,2 -12,4 -18,5z"/>
   <path class="fil2" d="M10001 9312c-1,-6 -3,-12 -5,-18 0,-1 0,-1 0,-1 -2,5 -4,10 -6,15 -6,-2 -11,-4 -17,-6 0,0 0,0 0,0 0,0 0,1 0,1 4,5 9,10 14,15 -2,5 -4,10 -6,14 0,1 0,1 0,1 1,0 1,0 1,0 4,-2 9,-4 14,-6 4,5 9,10 14,15 0,0 0,0 0,0l0 0c0,0 0,0 0,-1 0,0 0,0 0,0 -2,-6 -3,-12 -5,-18 4,-2 9,-4 14,-6 0,0 0,0 0,0 0,0 0,0 0,0 -6,-2 -12,-4 -18,-5z"/>
   <path class="fil2" d="M10100 9330c-2,-6 -4,-11 -5,-17 0,0 -1,0 -1,0 -1,5 -3,11 -5,16 -6,-1 -12,-1 -17,-2 -1,0 -1,0 -1,0 0,0 0,0 0,0 5,4 10,8 14,12 -1,5 -3,11 -5,16 0,0 0,0 0,0 0,0 0,0 0,0 5,-3 10,-6 14,-8 5,3 10,7 15,11 0,0 0,0 0,0l0 0c0,0 0,0 0,0 0,0 0,0 0,0 -2,-6 -4,-12 -6,-17 5,-3 10,-6 14,-10 1,0 1,0 1,0 0,0 -1,0 -1,0 -5,0 -11,-1 -17,-1z"/>
   <path class="fil2" d="M10199 9329c-2,-5 -4,-10 -6,-16 0,0 0,0 0,0 -2,6 -4,11 -5,17 -6,1 -12,1 -18,1 0,0 0,0 0,0 0,0 0,0 0,0 5,4 9,7 14,10 -2,6 -3,11 -5,17 0,0 0,0 0,0 0,0 0,0 0,0 5,-4 9,-7 14,-11 5,3 10,6 14,9 0,0 0,0 0,0l0 0c0,0 1,0 1,0 0,0 0,0 0,0 -2,-6 -4,-11 -6,-16 5,-4 10,-8 14,-12 0,0 0,0 0,0 0,0 0,0 0,0 -6,0 -12,1 -17,1z"/>
   <path class="fil2" d="M10297 9314c-1,-5 -3,-10 -5,-15 0,0 0,0 0,0 -2,6 -4,12 -6,18 -5,1 -11,2 -17,3 0,0 0,0 0,0 0,0 0,0 0,0 4,3 9,5 14,8 -2,6 -4,12 -5,17 0,1 0,1 0,1 0,0 0,0 0,0 4,-5 9,-9 14,-13 5,2 9,5 14,7 0,0 0,0 0,0l0 0c0,0 0,0 0,0 0,0 0,0 0,0 -2,-5 -3,-11 -5,-16 5,-4 9,-8 14,-13 0,0 0,0 0,0 0,0 0,0 0,0 -6,1 -12,2 -18,3z"/>
   <path class="fil2" d="M10396 9290c-2,-5 -3,-10 -5,-15 0,0 -1,0 -1,0 -1,6 -3,12 -5,18 -6,2 -12,3 -17,5 0,0 -1,0 -1,0 0,0 0,0 1,0 4,2 9,5 14,7 -2,6 -4,12 -6,18 0,0 0,0 0,0 0,0 0,0 0,0 5,-5 10,-9 15,-14 4,2 9,4 14,6 0,0 0,0 0,0l0 0c0,0 0,0 0,0 0,0 0,0 0,0 -2,-5 -4,-10 -5,-15 4,-5 9,-10 14,-14 0,0 0,-1 0,-1 0,0 0,0 0,0 -6,2 -12,4 -18,5z"/>
   <path class="fil2" d="M10001 9396c-2,-6 -4,-12 -5,-18 0,-1 -1,-1 -1,-1 -2,5 -3,10 -5,15 -6,-2 -12,-4 -17,-6 -1,0 -1,0 -1,0 0,0 0,1 0,1 5,5 10,10 14,15 -1,5 -3,10 -5,14 0,1 0,1 0,1 0,0 0,0 0,0 5,-2 10,-4 14,-6 5,5 10,10 15,14 0,1 0,1 0,1l0 0c0,0 0,0 0,-1 0,0 0,0 0,0 -2,-6 -4,-12 -6,-18 5,-2 10,-4 15,-6 0,0 0,0 0,0 0,0 -1,0 -1,0 -5,-2 -11,-4 -17,-5z"/>
   <path class="fil2" d="M10100 9414c-2,-6 -4,-11 -6,-17 0,0 0,0 0,0 -2,5 -4,11 -5,16 -6,-1 -12,-1 -18,-2 0,0 0,0 0,0 0,0 0,0 0,0 5,4 10,8 14,12 -2,5 -3,11 -5,16 0,0 0,0 0,0 0,0 0,0 0,0 5,-3 9,-5 14,-8 5,3 10,7 14,11 0,0 0,0 0,0l0 0c0,0 1,0 1,0 0,0 0,0 0,0 -2,-6 -4,-12 -6,-17 5,-3 10,-6 14,-10 0,0 0,0 0,0 0,0 0,0 0,0 -6,0 -11,-1 -17,-1z"/>
   <path class="fil2" d="M10198 9413c-1,-5 -3,-10 -5,-16 0,0 0,0 0,0 -2,6 -4,12 -6,17 -5,1 -11,1 -17,1 0,0 0,0 0,0 0,0 0,1 0,1 5,3 9,6 14,9 -2,6 -4,11 -5,17 0,0 0,0 0,0 0,0 0,0 0,0 4,-4 9,-7 14,-11 5,3 9,6 14,9 0,0 0,0 0,0l0 0c0,0 0,0 0,0 0,0 0,0 0,0 -2,-6 -3,-11 -5,-16 5,-4 9,-8 14,-12 0,0 0,0 0,0 0,0 0,0 0,0 -6,0 -12,1 -18,1z"/>
   <path class="fil2" d="M10297 9399c-2,-5 -3,-11 -5,-16 0,0 -1,0 -1,0 -1,6 -3,12 -5,18 -6,1 -12,2 -17,3 0,0 0,0 0,0 -1,0 0,0 0,0 4,3 9,6 14,8 -2,6 -4,12 -6,18 0,0 0,0 0,0 0,0 0,0 0,0 5,-5 10,-9 15,-13 4,2 9,5 14,7 0,0 0,0 0,0l0 0c0,0 0,0 0,0 0,0 0,0 0,0 -2,-5 -4,-10 -5,-16 4,-4 9,-8 14,-13 0,0 0,0 0,0 0,0 0,0 0,0 -6,1 -12,2 -18,4z"/>
   <path class="fil2" d="M10396 9374c-2,-5 -4,-10 -6,-15 0,0 0,0 0,0 -2,6 -3,12 -5,18 -6,2 -12,4 -18,5 0,0 0,0 0,0 0,0 0,0 0,0 5,3 10,5 14,7 -1,6 -3,12 -5,18 0,0 0,0 0,0 0,0 0,0 0,0 5,-5 10,-9 14,-14 5,2 10,4 14,6 0,0 0,0 0,0l0 0c1,0 1,0 1,0l0 0c-2,-5 -4,-10 -6,-15 5,-5 10,-9 14,-14 0,0 0,0 0,0 0,0 0,-1 0,0 -6,1 -11,3 -17,4z"/>
  </g>
 </g>
</svg>
